<?xml version="1.0" encoding="UTF-8"?>
<svg xmlns="http://www.w3.org/2000/svg" version="1.1" viewBox="0 0 213 50.1">
  <defs>
    <style>
      .cls-1 {
        fill: #80a13b;
      }

      .cls-2 {
        fill: #2a6156;
      }

      .cls-3 {
        fill: #409131;
      }
    </style>
  </defs>
  <!-- Generator: Adobe Illustrator 28.7.1, SVG Export Plug-In . SVG Version: 1.2.0 Build 142)  -->
  <g>
    <g id="Layer_1">
      <path class="cls-1" d="M.05,9.91c.1-1.19.14-2.27.29-3.34.23-1.68,1.27-2.73,2.86-3.14,1.29-.33,2.62-.5,3.95-.68,1.62-.22,3.24-.38,4.87-.56,1.11-.12,2.23-.24,3.34-.35,1.8-.18,3.59-.35,5.39-.52,1.25-.12,2.49-.25,3.73-.35,2.21-.18,4.42-.4,6.63-.51,3.49-.18,6.98-.27,10.47-.44,1.18-.06,1.99.4,2.4,1.46.43,1.1.88,2.22,1.12,3.36.36,1.74.63,3.52.75,5.29.11,1.61-.46,3.12-2.22,3.79-.73.28-1.53.48-2.31.54-2.02.16-4.05.19-6.07.32-.56.03-.79-.16-.94-.68-.6-2.15-1.69-4.04-3.13-5.75-1.39-1.64-3.16-2.62-5.26-2.89-1.43-.18-2.89-.3-4.32-.2-1.62.11-3.14.7-4.57,1.51-2.11,1.2-3.81,2.81-4.8,5.02-.54,1.2-.77,2.54-1.08,3.83-.09.38-.04.62-.6.61-1.27,0-2.53.14-3.8.21-1.12.06-2.24.1-3.36.13-1.3.04-2.22-.6-2.65-1.78-.27-.75-.34-1.59-.44-2.4-.11-.85-.16-1.72-.23-2.47h0ZM27.97,15.23c-3.03.18-6.06.37-9.09.54-1.25.07-2.5.11-3.75.18-.5.03-.69-.11-.59-.67.6-3.69,3.4-6.15,6.88-6.68,3.04-.46,5.65.33,7.72,2.64.82.91,1.44,1.97,1.85,3.14.17.49.04.66-.47.68-.86.05-1.71.16-2.56.24,0-.02,0-.04,0-.06h0Z"/>
      <path class="cls-2" d="M38.77,50.09c0-2.51,0-4.88,0-7.25,0-.71-.01-1.43-.06-2.14-.14-2.06-1.13-3.17-3.19-3.29-1.58-.09-3.18.05-4.77.11-.94.04-1.89.13-2.83.19-4.03.24-8.06.48-12.09.71-1.31.08-2.63.12-3.94.2-.69.04-1.38.07-2.06.19-1.16.2-1.83.99-2.27,2.02-.54,1.28-.44,2.62-.39,3.96.06,1.6.06,3.2.05,4.8,0,.14-.23.4-.35.4-1.27,0-2.56.08-3.82-.09-1.86-.24-2.93-1.47-3-3.42-.08-2.22-.12-4.45,0-6.67.06-1.02.47-2.05.88-3.01.44-1.03,1.37-1.52,2.48-1.6,1.36-.09,2.72-.18,4.07-.24,3.2-.14,6.39-.27,9.59-.39,6.8-.26,13.6-.51,20.39-.76,1.51-.05,3.02-.15,4.53-.11,2.54.07,3.44.85,3.67,3.38.18,1.97.11,3.97.12,5.96,0,.86.03,1.74-.12,2.58-.42,2.39-2.13,4-4.53,4.33-.8.11-1.61.11-2.39.17h0ZM35.4,50.05h-.82c-6.37,0-12.75-.01-19.12-.03-1.42,0-2.85-.06-4.27-.07-.35,0-.52-.11-.53-.47-.05-1.75-.13-3.5-.15-5.24-.01-1.08.31-2.03,1.46-2.43.42-.14.88-.23,1.33-.25,2.85-.14,5.69-.26,8.54-.37,2.52-.1,5.05-.19,7.57-.28,1.47-.05,2.93-.09,4.4-.12.83-.02,1.23.19,1.44,1,.23.87.37,1.78.37,2.67,0,1.83-.13,3.66-.21,5.59h0ZM30.09,48.07c.77-.73,1.42-1.32,2.03-1.96.25-.27.44-.64.56-1,.16-.5.1-1.06-.37-1.34-.37-.22-.88-.33-1.3-.28-.32.04-.59.42-.86.64-.26-.21-.51-.52-.82-.65-.54-.22-1.07-.09-1.46.38-.44.54-.45,1.18-.06,1.68.67.86,1.46,1.62,2.29,2.53h0ZM125.15,41.92v3.59c0,.82-.21,1.03-1.03,1.05-.45,0-.91,0-1.36,0-.82,0-1.03-.22-1.03-1.05,0-3.35,0-6.7,0-10.05,0-1.75,0-3.5,0-5.25,0-.84.24-1.08,1.08-1.08,1.58,0,3.15-.01,4.73,0,2.25.02,3.52,1.12,3.64,3.35.11,2,.05,4.02-.01,6.03-.02.83-.35,1.61-.99,2.2-.32.29-.36.57-.21.97.46,1.28.88,2.57,1.32,3.86.27.8.12,1.01-.74,1.02-.52,0-1.04,0-1.56,0-.57,0-.92-.27-1.07-.83-.28-1.02-.64-2.02-.88-3.05-.14-.6-.39-.86-1.01-.76-.25.04-.51,0-.88,0h0ZM125,35.31v1.94c0,1.8.22,1.98,2.02,1.66.78-.14,1.21-.63,1.22-1.42.01-1.47.02-2.94,0-4.4,0-.8-.48-1.28-1.27-1.35-.45-.03-.91,0-1.36-.05-.5-.04-.63.17-.62.64.03.99,0,1.99,0,2.98h0ZM72.82,37.78c0-1.36,0-2.72,0-4.08.02-2.68,1.82-4.64,4.49-4.85,1.77-.14,3.39.18,4.66,1.58.81.9,1.17,1.96,1.17,3.14.02,2.91.13,5.83-.04,8.74-.18,2.91-2.83,4.78-5.75,4.47-3.1-.34-4.68-2.81-4.55-5.24.07-1.25.01-2.51.01-3.76h0ZM79.96,37.69h0c0-1.34,0-2.68,0-4.02-.01-1.16-.79-1.97-1.92-2.01-1.18-.04-2.12.73-2.13,1.88-.04,2.76-.04,5.53,0,8.29.02,1.17,1.01,2.04,2.13,1.99,1.08-.04,1.91-.94,1.92-2.12.01-1.34,0-2.68,0-4.02h0ZM61.89,41.66c.26,0,.52,0,.78,0,.56.01.86.28.96.85.22,1.26.96,1.79,2.18,1.61.97-.14,1.56-1.02,1.46-2.18-.13-1.4-.52-1.84-1.88-2.28-.94-.3-1.91-.57-2.77-1.05-1.4-.77-1.97-2.12-2.12-3.66-.18-1.79-.09-3.52,1.37-4.85,2.16-1.96,6.88-1.89,8.09,1.97.03.08.06.16.07.25.16,1.31.35,1.92-1.46,1.81-.22-.01-.43,0-.65,0-.55.01-.83-.22-.84-.81-.02-.94-.49-1.53-1.23-1.67-1.09-.2-1.93.21-2.31,1.1-.63,1.5-.01,3.02,1.5,3.61.58.23,1.2.35,1.8.53,2.3.7,3.37,2.09,3.5,4.49.06,1.12-.01,2.21-.56,3.21-.88,1.62-2.38,2.23-4.1,2.27-1.9.05-3.65-.43-4.67-2.21-.36-.63-.47-1.42-.56-2.15-.09-.71.13-.87.85-.88.19,0,.39,0,.58,0v.02h0ZM110.67,37.76v-7.65c0-.88.11-1.01,1.01-1.01,2.25,0,4.49,0,6.74,0,.7,0,.94.22.95.92.04,2.11.05,2.09-1.91,2.06-1.08-.02-2.16.01-3.24,0-.44,0-.61.14-.6.6.03,1.23.02,2.46,0,3.69,0,.44.13.62.59.61.99-.02,1.99-.01,2.98,0,.75,0,.85.1.86.88,0,.43-.01.86,0,1.3.03.56-.26.79-.78.79-.99,0-1.99.02-2.98,0-.5-.02-.7.12-.67.65.04.75.04,1.51,0,2.27-.03.54.19.66.68.65,1.36-.02,2.72-.01,4.08,0,.73,0,.98.23,1,.96.04,2.22,0,2.03-1.93,2.02s-3.84,0-5.77,0c-.92,0-1.01-.1-1.01-1v-7.71h0ZM98.45,37.7c0-1.25.03-2.51,0-3.76-.11-3.4,2.53-5.59,5.98-5.03,2.31.38,3.77,1.98,3.97,4.3.08.91-.16,1.18-1.06,1.17-.35,0-.69,0-1.04,0-.7-.02-.98-.26-1.05-.95-.15-1.3-.81-1.85-2.12-1.79-1.04.05-1.75.88-1.75,2.03,0,2.66,0,5.32,0,7.98,0,.82.3,1.46,1.03,1.89,1.17.7,2.67-.05,2.83-1.4.1-.92.32-1.12,1.22-1.12.35,0,.69,0,1.04,0,.73.02.95.26.94,1-.06,3.02-2.7,5.2-5.72,4.73-2.61-.41-4.22-2.25-4.25-4.9-.02-1.38,0-2.77,0-4.15h0ZM88.72,37.66c0,1.3-.05,2.6.03,3.89.03.54.26,1.15.58,1.59.45.62,1.17.83,1.92.58.81-.26,1.28-.85,1.41-1.7.14-.9.26-1,1.15-1.02.24,0,.47,0,.71,0,1.17,0,1.32.15,1.27,1.3-.12,2.73-2.61,4.75-5.47,4.45-2.71-.28-4.44-2.16-4.46-4.88-.02-2.7.05-5.4-.02-8.1-.09-3.08,2.43-5.49,5.99-4.87,2.36.42,3.92,2.21,3.95,4.44.01.78-.21,1.01-.98,1.02-.41,0-.82,0-1.23,0-.54,0-.84-.3-.9-.82-.17-1.41-.8-1.97-2.15-1.91-1.07.04-1.78.88-1.79,2.13-.01,1.3,0,2.59,0,3.89h0Z"/>
      <path class="cls-3" d="M45.67,23.57c0,.95.03,1.9,0,2.85-.11,2.49-1.43,3.96-3.93,4.14-3.23.23-6.47.35-9.7.45-5.03.15-10.06.24-15.09.38-3.76.11-7.51.29-11.26.39-1.01.03-2.03-.04-3.03-.16-1.05-.12-1.84-.7-2.07-1.77-.47-2.2-.62-4.42.04-6.6.6-2.02,2.05-2.98,4.48-3.15,1.89-.13,3.78-.29,5.67-.47.42-.04.49.14.57.49,1,4.38,4.46,7.78,8.61,8.4,4.14.62,7.83-.47,11.08-3.08,1.55-1.25,2.98-2.61,3.55-4.59.23-.77.26-1.61.31-2.42.03-.46.13-.63.63-.65,1.98-.1,3.96-.31,5.94-.36.84-.02,1.74.1,2.52.4,1.13.44,1.62,1.46,1.68,2.64.05,1.03.01,2.07.01,3.11h0ZM15.03,19.34c5.55-.41,10.96-.82,16.44-1.23.02,1.1-.32,2.05-.92,2.92-1.49,2.17-3.55,3.54-6.02,4.37-2.15.72-4.03.26-5.77-1.09-1.47-1.15-2.72-2.46-3.46-4.2-.09-.21-.16-.44-.27-.77ZM122.64,13.69v-7.46c0-1.03.19-1.22,1.19-1.22,1.53,0,3.07,0,4.6.01,2.39.03,3.6,1.16,3.68,3.56.06,1.83.03,3.67,0,5.51-.01.96-.34,1.83-1.04,2.51-.29.28-.33.55-.2.92.48,1.32.93,2.65,1.38,3.97.23.67.07.91-.66.93-.56.01-1.12-.01-1.69.01-.6.02-.91-.29-1.07-.83-.32-1.1-.64-2.2-.96-3.29-.14-.47-1.39-.82-1.72-.46-.1.1-.1.32-.1.48,0,.97,0,1.95,0,2.92,0,1.05-.13,1.17-1.21,1.17h-1.04c-1,0-1.18-.17-1.18-1.15v-7.59h0ZM125.97,14.77h1.44c1.37,0,1.75-.39,1.76-1.78,0-.95-.04-1.9,0-2.85.11-2.46-.34-2.58-2.68-2.58-.45,0-.59.16-.59.61.02,2,0,4.01.01,6.01,0,.17.03.33.05.58h0ZM73.17,13.73v-7.71c0-.86.12-1,.96-1,1.58,0,3.15-.02,4.73,0,2.37.04,3.49.91,3.68,3.27.17,2.12.06,4.27-.08,6.4-.04.65-.5,1.32-.91,1.88-.29.39-.34.66-.18,1.09.46,1.26.88,2.52,1.3,3.79.24.73.08.96-.67.98-.54,0-1.08-.01-1.62,0-.56.02-.89-.24-1.05-.77-.33-1.11-.71-2.22-1-3.34-.23-.91-.93-.5-1.42-.53-.6-.04-.41.49-.42.82-.02.97,0,1.95,0,2.92,0,.72-.2.91-.94.91-.52,0-1.04-.02-1.55,0-.61.02-.85-.25-.85-.86.02-2.61,0-5.23,0-7.84h0ZM76.41,11.14h0v1.88c0,1.2.61,1.78,1.82,1.75.87-.02,1.42-.53,1.43-1.41.03-1.44.02-2.89,0-4.34-.01-.8-.52-1.34-1.32-1.41-.47-.04-.95-.02-1.42-.04-.39-.02-.53.14-.52.53.02,1.01,0,2.03,0,3.04h0ZM134.61,13.66c0-1.3,0-2.59,0-3.89.01-3.1,1.91-4.96,5.01-5.03,1.88-.04,3.45.48,4.54,2.08.57.83.8,1.77.81,2.75.02,2.7.02,5.4,0,8.1,0,2.73-2.06,4.77-4.79,4.93-1.99.11-3.62-.41-4.77-2.1-.55-.81-.79-1.72-.8-2.69-.01-1.38,0-2.77,0-4.15h0ZM141.71,13.57c0-1.38,0-2.76,0-4.14,0-1.11-.75-1.84-1.88-1.88-1.17-.04-2.1.72-2.11,1.8-.02,2.81-.02,5.62,0,8.42,0,1.09.93,1.93,2.03,1.91,1.13-.02,1.95-.82,1.95-1.97,0-1.38,0-2.77,0-4.14h0ZM147.62,13.66c0-1.43-.01-2.85,0-4.28.03-2.56,2-4.55,4.56-4.62,1.08-.03,2.17-.06,3.17.47,1.73.91,2.59,2.39,2.61,4.31.04,2.81.04,5.62,0,8.43-.04,2.44-2.19,4.6-4.63,4.62-.91,0-1.88-.06-2.73-.34-1.77-.58-2.95-2.38-2.98-4.24-.01-.73,0-1.47,0-2.2v-2.14h0ZM154.75,13.59c0-1.36,0-2.72,0-4.08,0-1.17-.84-1.97-2.02-1.96-1.21,0-2.01.78-2.01,1.97,0,2.7,0,5.4,0,8.1,0,1.17.9,2.09,2.02,2.09,1.13,0,2.01-.9,2.01-2.09,0-1.34,0-2.68,0-4.02h0ZM90.72,5.04c.43,0,.86,0,1.3,0,.79,0,1.03.22,1.19.98.61,3.05,1.22,6.09,1.83,9.13.43,2.11.86,4.23,1.3,6.34.14.7-.03.94-.73.95-.63.01-1.25-.03-1.88-.01-.42.01-.64-.18-.73-.58-.16-.74-.35-1.47-.48-2.21-.08-.45-.28-.61-.74-.6-.8.03-1.6.03-2.4,0-.43-.02-.63.14-.69.56-.12.74-.29,1.48-.42,2.23-.08.43-.29.63-.75.61-.63-.03-1.25,0-1.88-.01-.65-.01-.82-.2-.7-.84.56-2.86,1.15-5.71,1.72-8.56.48-2.37.97-4.73,1.43-7.1.12-.62.45-.9,1.06-.9h1.56ZM90.7,8.6c-.06,0-.12.02-.18.02-.19,1.1-.37,2.2-.56,3.3-.22,1.27-.46,2.54-.66,3.82-.03.19.11.57.19.57.82.04,1.65.03,2.54.03-.46-2.67-.9-5.21-1.34-7.75h0ZM60.43,13.61c0-1.38-.02-2.77,0-4.15.05-2.76,1.96-4.66,4.71-4.74,1.5-.04,2.94.12,4.13,1.17.85.75,1.32,1.69,1.41,2.82.04.5-.18.72-.67.71-.3,0-.61-.02-.91,0-.84.08-1.48-.01-1.72-1.05-.18-.76-1.27-1.08-2.35-.86-.98.19-1.6.9-1.61,1.91-.02,1.95,0,3.89,0,5.84,0,.78-.01,1.56,0,2.33.03,1.23.98,2.16,2.17,2.1,1.46-.06,2.25-1.05,2.14-2.16-.06-.66-.02-1.34-.01-2.01,0-.36-.15-.52-.51-.49-.02,0-.04,0-.06,0-.49-.08-1.21.27-1.4-.33-.2-.64-.14-1.4-.06-2.09.02-.21.49-.5.76-.52,1.16-.06,2.33-.03,3.5-.02.53,0,.77.28.77.82-.01,1.71.02,3.42-.02,5.12-.06,2.6-2.18,4.6-4.78,4.68-1.88.06-3.44-.47-4.58-2.03-.59-.81-.89-1.73-.9-2.73-.02-1.45,0-2.9,0-4.34h0,0ZM103.08,22.74c-1.21.02-2.55-.35-3.63-1.43-.81-.81-1.12-1.83-1.15-2.94-.02-.57.26-.89.87-.88.3,0,.6,0,.91,0,1.13.01,1.26.12,1.49,1.23.14.71.79,1.24,1.58,1.3.9.07,1.65-.39,1.94-1.2.5-1.41-.19-2.81-1.62-3.24-.51-.16-1.05-.25-1.56-.42-1.78-.6-3.08-1.67-3.36-3.63-.12-.85-.25-1.72-.17-2.56.25-2.41,1.55-3.71,3.93-4.14,2.39-.42,4.48.58,5.36,2.65.23.54.3,1.16.36,1.76.05.48-.24.77-.75.77s-1.04-.01-1.55,0c-.49.01-.69-.24-.74-.7-.16-1.33-.65-1.81-1.8-1.81-.99,0-1.76.73-1.94,1.83-.22,1.4.51,2.58,1.85,3.01.8.26,1.62.47,2.4.77,1.48.55,2.36,1.64,2.62,3.19.22,1.31.28,2.64-.29,3.88-.87,1.91-2.49,2.58-4.75,2.57h0ZM115.34,22.73c-1.7.02-3.08-.41-4.16-1.6-.77-.86-1.01-1.88-.95-3,.02-.43.26-.62.67-.63.34,0,.69,0,1.04,0,1.12,0,1.27.12,1.52,1.21.2.86.94,1.39,1.88,1.32.92-.06,1.61-.7,1.69-1.58.16-1.82-.46-2.59-2.24-3.04-.87-.22-1.74-.55-2.51-1-1.26-.74-1.8-1.98-1.97-3.4-.2-1.64-.19-3.26.94-4.61,1.31-1.55,3.08-1.85,4.95-1.55,1.8.28,2.96,1.4,3.54,3.13.03.1.07.2.09.31.23,1.78-.08,1.77-1.42,1.72-.24-.01-.47-.01-.71,0-.57.03-.81-.24-.83-.81-.03-.99-.48-1.51-1.32-1.65-1.02-.17-1.83.22-2.2,1.06-.68,1.53.03,3.17,1.61,3.71.9.31,1.82.54,2.69.91,1.3.56,2.11,1.57,2.32,2.98.12.78.19,1.6.13,2.38-.18,2.39-1.81,3.96-4.19,4.13-.24.02-.47.02-.57.03h0ZM165.87,14.95c0,2.16,0,4.32,0,6.48,0,.8-.2.99-.99.99h-1.36c-.48,0-.72-.25-.74-.71-.01-.3,0-.6,0-.91,0-4.09-.01-8.17.01-12.26,0-.59-.15-.82-.76-.78-.56.04-1.12.01-1.69,0-.5-.01-.73-.27-.76-.78-.11-1.96-.05-2.02,1.88-2.02,2.12,0,4.24,0,6.35,0,.95,0,1.09.13,1.08,1.08-.02,1.56.34,1.77-1.73,1.74-1.29-.02-1.29,0-1.29,1.32v5.84h0Z"/>
    </g>
  </g>
</svg>