<svg width="2980" height="650" viewBox="0 0 2980 650" fill="none" xmlns="http://www.w3.org/2000/svg">
<path d="M2289.01 524.728C2313.04 524.728 2332.41 544.278 2332.41 568.149C2332.41 592.194 2313.04 611.744 2289.01 611.744C2278.1 611.744 2268.24 607.773 2260.48 601.184H2260.65V606.202C2260.65 608.646 2258.56 610.522 2256.16 610.697H2249.92C2247.52 610.522 2245.6 608.777 2245.43 606.377V495.141C2245.78 492.872 2247.65 490.995 2249.92 490.995H2256.16C2258.6 490.995 2260.65 493.09 2260.65 495.49V535.114C2260.65 535.114 2260.65 535.289 2260.48 535.289L2260.65 535.114C2268.24 528.743 2278.1 524.728 2289.01 524.728ZM2289.01 596.689C2304.58 596.689 2317.36 583.903 2317.36 568.149C2317.36 552.57 2304.58 539.784 2289.01 539.784C2273.26 539.784 2260.65 552.57 2260.65 568.149C2260.65 583.903 2273.26 596.689 2289.01 596.689Z" fill="#5D70D2"/>
<path d="M2414.16 526.124H2420.75C2423.67 526.124 2424.89 527.87 2424.89 529.746C2424.89 530.27 2424.89 530.793 2424.72 531.142L2385.81 621.432C2374.42 644.778 2357.11 648.924 2344.15 649.448C2341.88 649.273 2340.01 647.222 2340.01 644.778V638.887C2340.01 634.567 2343.63 634.218 2344.5 634.218C2354.01 633.694 2364.56 629.897 2372.15 615.017L2373.38 611.918C2373.73 611.045 2373.9 609.998 2373.9 609.344C2373.9 608.471 2373.73 607.598 2373.38 606.9C2362.47 581.982 2351.09 556.235 2340.01 531.317C2339.83 530.793 2339.66 530.27 2339.66 529.746C2339.66 527.87 2341.05 526.124 2343.8 526.124H2350.52C2352.61 526.124 2354.31 526.822 2355.53 529.397L2382.49 590.622C2382.67 590.622 2382.67 590.448 2382.67 590.448L2408.8 529.746C2409.98 526.997 2411.89 526.124 2414.16 526.124Z" fill="#5D70D2"/>
<path d="M2558.94 495.708V606.42C2558.94 608.82 2557.02 610.74 2554.62 610.915H2548.25C2545.81 610.74 2543.93 608.82 2543.93 606.42V601.227V601.401C2536.34 607.773 2526.31 611.962 2515.58 611.962C2491.54 611.962 2472 592.412 2472 568.367C2472 544.322 2491.54 524.946 2515.58 524.946C2526.31 524.946 2536.17 528.743 2543.76 535.332L2543.93 535.507C2543.93 535.332 2543.93 535.332 2543.93 535.332V495.533C2544.11 493.133 2546.03 491.213 2548.43 491.213H2554.49C2557.06 491.213 2558.94 493.264 2558.94 495.708ZM2515.53 596.688C2531.11 596.688 2543.89 584.077 2543.89 568.323C2543.89 552.744 2531.11 539.958 2515.53 539.958C2499.79 539.958 2487.18 552.744 2487.18 568.323C2487.18 584.077 2499.83 596.688 2515.53 596.688Z" fill="#5D70D2"/>
<path d="M2594.54 495.708V503.301C2594.54 505.745 2592.44 507.796 2590.04 507.796H2583.98C2581.41 507.796 2579.31 505.701 2579.31 503.301V495.708C2579.31 493.133 2581.41 491.038 2583.98 491.038H2590.04C2592.44 491.038 2594.54 493.089 2594.54 495.708ZM2594.54 530.444V606.027C2594.54 608.602 2592.44 610.696 2590.04 610.696H2583.98C2581.41 610.696 2579.31 608.602 2579.31 606.027V530.444C2579.31 527.869 2581.41 525.775 2583.98 525.775H2590.04C2592.44 525.775 2594.54 527.869 2594.54 530.444Z" fill="#5D70D2"/>
<path d="M2707.57 524.728C2727.28 524.728 2743.38 540.831 2743.38 560.556V606.377C2743.38 608.602 2741.29 610.522 2739.06 610.697H2732.65C2730.21 610.522 2728.33 608.602 2728.33 606.202V560.556C2728.33 549.122 2719 539.784 2707.57 539.784C2696.18 539.784 2686.8 549.122 2686.8 560.556V606.377C2686.63 608.777 2684.71 610.522 2682.31 610.697H2676.07C2673.63 610.522 2671.58 608.602 2671.58 606.202V560.556C2671.58 549.122 2662.24 539.784 2650.81 539.784C2639.38 539.784 2630.05 549.122 2630.05 560.556V606.202C2630.05 608.646 2628.13 610.522 2625.73 610.697H2619.32C2617.05 610.522 2615 608.602 2615 606.377V530.27C2615 527.87 2617.09 525.776 2619.49 525.776H2625.56C2628 525.776 2630.05 527.87 2630.05 530.27V531.318C2635.94 527.172 2643.18 524.728 2650.81 524.728C2662.2 524.728 2672.41 529.921 2679.17 538.387H2679.34C2685.97 530.27 2696.18 524.728 2707.57 524.728Z" fill="#5D70D2"/>
<path d="M2829.22 525.95H2835.29C2837.73 525.95 2839.61 527.87 2839.78 530.096V606.551C2839.61 608.995 2837.69 610.697 2835.46 610.697H2829.22C2826.65 610.697 2824.73 608.602 2824.73 606.202V601.358C2824.73 601.184 2824.73 601.184 2824.73 601.184V601.358C2818.49 607.249 2806.93 611.744 2796.38 611.744C2772.34 611.744 2752.8 592.369 2752.8 568.323C2752.8 544.278 2772.34 524.728 2796.38 524.728C2806.93 524.728 2816.97 528.699 2824.73 535.289V530.445C2824.73 528.045 2826.78 525.95 2829.22 525.95ZM2796.38 596.689C2811.95 596.689 2824.73 583.903 2824.73 568.323C2824.73 552.57 2811.95 539.958 2796.38 539.958C2780.63 539.958 2768.02 552.57 2768.02 568.323C2768.02 583.903 2780.63 596.689 2796.38 596.689Z" fill="#5D70D2"/>
<path d="M2925.81 525.776H2931.87C2934.1 525.776 2936.02 527.696 2936.37 529.921V617.941C2936.37 639.717 2922.36 648.576 2902.47 649.056C2899.9 649.056 2897.98 647.135 2897.98 644.561V638.582C2897.98 636.138 2899.9 634.087 2902.47 634.087C2914.07 633.738 2921.14 631.164 2921.14 617.985V601.184C2913.55 607.773 2903.69 611.744 2892.79 611.744C2868.93 611.744 2849.38 592.194 2849.38 568.149C2849.38 544.278 2868.93 524.728 2892.79 524.728C2903.34 524.728 2913.2 528.525 2920.79 534.765C2920.97 535.114 2921.14 535.114 2921.14 535.289L2921.32 530.445C2921.32 527.87 2923.24 525.776 2925.81 525.776ZM2892.79 596.689C2908.53 596.689 2921.14 583.903 2921.14 568.149C2921.14 552.57 2908.53 539.784 2892.79 539.784C2877.21 539.784 2864.43 552.57 2864.43 568.149C2864.43 583.903 2877.21 596.689 2892.79 596.689Z" fill="#5D70D2"/>
<path d="M2971.04 495.708V503.301C2971.04 505.745 2968.95 507.796 2966.55 507.796H2960.49C2957.87 507.796 2955.82 505.701 2955.82 503.301V495.708C2955.82 493.133 2957.91 491.038 2960.49 491.038H2966.55C2968.99 491.038 2971.04 493.089 2971.04 495.708ZM2971.04 530.444V606.027C2971.04 608.602 2968.95 610.696 2966.55 610.696H2960.49C2957.87 610.696 2955.82 608.602 2955.82 606.027V530.444C2955.82 527.869 2957.91 525.775 2960.49 525.775H2966.55C2968.99 525.775 2971.04 527.869 2971.04 530.444Z" fill="#5D70D2"/>
<path d="M476.238 205.902C466.946 173.172 445.484 145.985 415.777 129.403C400.509 120.893 383.976 115.744 367.095 113.954C366.309 106.841 365.044 99.728 363.081 92.7022C353.79 59.9729 332.328 32.7859 302.621 16.203C272.914 -0.379767 238.54 -4.39454 205.823 4.90056C173.106 14.1957 145.93 35.666 129.353 65.3842C120.847 80.6578 115.699 97.197 113.911 114.085C106.8 114.871 99.6899 116.136 92.6667 118.1C59.95 127.395 32.7733 148.866 16.1969 178.584C-0.379615 208.302 -4.39287 242.689 4.89868 275.419C14.1902 308.148 35.6524 335.335 65.3592 351.918C80.627 360.427 97.1598 365.577 114.042 367.366C114.827 374.479 116.092 381.592 118.055 388.618C127.346 421.347 148.809 448.534 178.515 465.117C208.222 481.7 242.597 485.715 275.313 476.42C308.03 467.124 335.207 445.654 351.783 415.936C360.289 400.662 365.437 384.123 367.225 367.235C374.336 366.449 381.446 365.184 388.469 363.22C421.186 353.925 448.363 332.455 464.939 302.737C481.472 273.018 485.485 238.631 476.238 205.902ZM167.959 86.9418C178.777 67.5661 196.488 53.5144 217.863 47.4486C239.238 41.3827 261.659 44.0011 281.071 54.8235C300.483 65.646 314.486 83.3634 320.55 104.746C321.727 108.849 322.469 112.994 322.992 117.184C324.825 131.759 322.862 146.465 317.016 160.081C315.882 162.743 314.617 165.405 313.177 167.979C309.906 173.871 303.886 183.864 296.645 195.646C267.418 177.144 208.789 140.181 189.465 129.403C179.475 123.817 168.919 119.802 158.1 117.096C159.365 106.623 162.68 96.4115 167.959 86.9418ZM273.263 240.682C273.263 258.748 258.606 273.411 240.546 273.411C222.487 273.411 207.83 258.748 207.83 240.682C207.83 222.615 222.487 207.953 240.546 207.953C258.606 207.953 273.263 222.615 273.263 240.682ZM129.309 291.783C123.726 301.776 119.713 312.337 117.008 323.16C106.539 321.85 96.331 318.534 86.865 313.254C67.4967 302.431 53.4503 284.714 47.3868 263.331C41.3233 241.947 43.9406 219.517 54.759 200.098C65.5773 180.678 83.2879 166.67 104.663 160.604C108.763 159.426 112.907 158.684 117.095 158.161C131.665 156.328 146.366 158.292 159.976 164.139C162.637 165.274 165.298 166.583 167.872 168.023C173.761 171.296 183.75 177.318 195.528 184.562C177.032 213.8 140.128 272.495 129.309 291.783ZM313.134 394.378C302.315 413.754 284.605 427.806 263.23 433.872C241.855 439.937 219.433 437.319 200.021 426.497C180.609 415.674 166.607 397.957 160.543 376.574C159.365 372.472 158.624 368.326 158.1 364.137C156.268 349.561 158.231 334.855 164.033 321.239C165.167 318.577 166.432 315.915 167.915 313.341C171.187 307.45 177.207 297.456 184.448 285.674C213.675 304.177 272.303 341.139 291.628 351.918C301.618 357.503 312.174 361.518 322.992 364.224C321.727 374.697 318.412 384.909 313.134 394.378ZM426.29 281.179C415.472 300.598 397.761 314.606 376.386 320.672C372.286 321.85 368.141 322.592 363.954 323.116C349.384 324.949 334.683 322.985 321.073 317.137C318.412 316.003 315.751 314.737 313.177 313.254C307.288 309.981 297.299 303.958 285.521 296.714C304.017 267.476 340.965 208.825 351.74 189.493C357.323 179.5 361.336 168.939 364.041 158.117C374.51 159.426 384.718 162.743 394.184 168.023C413.552 178.845 427.599 196.563 433.662 217.946C439.726 239.329 437.108 261.803 426.29 281.179Z" fill="#5D70D2"/>
<path d="M632.841 247.97C632.841 321.633 693.04 381.811 766.631 381.811C812.914 381.811 855.533 358.202 880.049 319.276C880.049 319.276 881.444 316.963 884.673 316.963C885.589 316.963 886.984 317.443 888.86 318.36L905.044 327.611C905.044 327.611 911.064 331.321 907.356 336.863C876.821 385.04 824.038 414.191 766.631 414.191C674.98 414.191 600.43 339.612 600.43 247.927C600.43 155.761 674.98 81.2256 766.631 81.2256C824.517 81.2256 878.216 110.857 908.316 159.514C910.628 163.66 907.836 167.849 906.004 168.765L889.34 178.497C887.508 178.977 886.112 179.413 885.152 179.413C881.924 179.413 880.528 177.1 880.528 177.1C856.449 137.738 813.394 113.649 766.631 113.649C692.996 113.649 632.841 173.871 632.841 247.97Z" fill="#5D70D2"/>
<path d="M932.305 295.668C932.305 231.301 984.608 178.978 1048.99 178.978C1113.34 178.978 1165.2 231.301 1165.2 295.668C1165.2 360.036 1113.34 412.402 1048.99 412.402C984.651 412.402 932.305 360.036 932.305 295.668ZM964.716 295.668C964.716 341.969 1002.67 379.499 1048.99 379.499C1095.28 379.499 1132.79 341.969 1132.79 295.668C1132.79 249.367 1095.28 211.838 1048.99 211.838C1002.71 211.838 964.716 249.367 964.716 295.668Z" fill="#5D70D2"/>
<path d="M1559.59 275.769V403.107C1559.59 407.296 1556.37 410.526 1552.18 410.526H1534.6C1530.46 410.526 1527.18 406.816 1527.18 402.671V275.769C1527.18 241.032 1498.96 212.798 1464.67 212.798C1429.95 212.798 1401.73 241.032 1401.73 275.769V403.107C1401.25 407.296 1398.02 410.526 1394.31 410.526H1376.73C1372.54 410.526 1369.31 406.816 1369.31 402.671V275.769C1369.31 241.032 1341.09 212.798 1306.37 212.798C1272.12 212.798 1243.86 241.032 1243.86 275.769V402.671C1243.86 406.86 1240.63 410.526 1236.44 410.526H1218.86C1214.72 410.526 1211.45 407.296 1211.45 403.107V190.978C1211.45 186.832 1215.15 183.559 1219.3 183.559H1235.96C1240.15 183.559 1243.81 186.789 1243.81 190.978V194.207C1243.81 197.437 1245.69 199.313 1248 199.313C1248.92 199.313 1250.31 198.833 1251.23 197.917C1266.98 186.789 1285.95 180.33 1306.32 180.33C1336.86 180.33 1363.73 194.207 1381.31 216.463C1382.23 217.86 1384.1 218.776 1385.5 218.776C1387.33 218.776 1388.73 217.86 1389.64 216.463C1407.22 194.687 1434.09 180.33 1464.63 180.33C1517.02 180.33 1559.59 222.965 1559.59 275.769Z" fill="#5D70D2"/>
<path d="M1962.8 275.769V403.107C1962.8 407.296 1959.57 410.526 1955.38 410.526H1937.8C1933.61 410.526 1930.39 406.816 1930.39 402.671V275.769C1930.39 241.032 1902.16 212.798 1867.92 212.798C1833.2 212.798 1804.93 241.032 1804.93 275.769V403.107C1804.45 407.296 1801.22 410.526 1797.51 410.526H1779.93C1775.79 410.526 1772.52 406.816 1772.52 402.671V275.769C1772.52 241.032 1744.29 212.798 1709.57 212.798C1675.33 212.798 1647.06 241.032 1647.06 275.769V402.671C1647.06 406.86 1643.83 410.526 1639.64 410.526H1622.06C1617.88 410.526 1614.65 407.296 1614.65 403.107V190.978C1614.65 186.832 1618.36 183.559 1622.5 183.559H1639.16C1643.35 183.559 1647.02 186.789 1647.02 190.978V194.207C1647.02 197.437 1648.85 199.313 1651.16 199.313C1652.08 199.313 1653.47 198.833 1654.39 197.917C1670.14 186.789 1689.11 180.33 1709.48 180.33C1740.02 180.33 1766.89 194.207 1784.47 216.463C1785.39 217.86 1787.26 218.776 1788.66 218.776C1790.53 218.776 1791.89 217.86 1792.85 216.463C1810.43 194.687 1837.3 180.33 1867.83 180.33C1920.22 180.33 1962.8 222.965 1962.8 275.769Z" fill="#5D70D2"/>
<path d="M2034.99 247.97C2034.99 321.633 2095.15 381.811 2168.78 381.811C2215.07 381.811 2257.69 358.202 2282.2 319.276C2282.2 319.276 2283.6 316.963 2286.83 316.963C2287.74 316.963 2289.14 317.443 2290.97 318.36L2307.15 327.611C2307.15 327.611 2313.17 331.321 2309.47 336.863C2278.93 385.04 2226.15 414.191 2168.74 414.191C2077.09 414.191 2002.54 339.612 2002.54 247.927C2002.54 155.761 2077.09 81.2257 2168.74 81.2257C2226.63 81.2257 2280.33 110.857 2310.38 159.514C2312.69 163.66 2309.9 167.849 2308.07 168.765L2291.41 178.497C2289.53 178.977 2288.18 179.413 2287.22 179.413C2283.99 179.413 2282.59 177.101 2282.59 177.101C2258.51 137.738 2215.46 113.649 2168.7 113.649C2095.19 113.649 2034.99 173.871 2034.99 247.97Z" fill="#5D70D2"/>
<path d="M2567.84 190.978V403.544C2567.84 407.733 2564.61 410.482 2560.42 410.482H2543.28C2539.09 410.482 2535.43 406.773 2535.43 402.627C2535.43 402.627 2535.43 392.459 2535.43 389.186C2535.43 386.393 2533.55 383.644 2530.8 383.644C2529.89 383.644 2528.49 384.124 2527.09 385.521C2510.91 401.711 2480.33 413.755 2451.63 413.755C2387.28 413.755 2334.94 361.432 2334.94 297.021C2334.94 232.653 2387.24 180.33 2451.63 180.33C2480.33 180.33 2506.72 190.978 2527.09 208.565C2528.49 209.481 2529.89 209.961 2531.24 209.961C2533.55 209.961 2535.43 208.085 2535.43 204.855C2535.43 201.626 2535.43 191.414 2535.43 191.414C2535.43 187.225 2539.13 183.559 2543.28 183.559H2559.94C2564.13 183.603 2567.84 186.832 2567.84 190.978ZM2535.43 297.064C2535.43 250.763 2497.91 213.234 2451.63 213.234C2405.34 213.234 2367.35 250.763 2367.35 297.064C2367.35 343.365 2405.3 380.895 2451.63 380.895C2497.91 380.895 2535.43 343.365 2535.43 297.064Z" fill="#5D70D2"/>
<path d="M2731.25 188.229V205.379C2731.25 209.568 2727.54 212.798 2723.4 213.234C2684.05 217.423 2653.51 250.283 2653.51 290.562V403.544C2653.03 407.253 2649.8 410.482 2646.1 410.482H2628.52C2624.33 410.482 2621.1 406.773 2621.1 402.627V191.458C2621.1 186.832 2624.81 183.603 2628.95 183.603H2645.62C2649.76 183.603 2653.03 186.396 2653.47 190.542V202.586C2653.95 204.899 2655.78 206.295 2658.09 206.295C2659.49 206.295 2660.89 205.815 2661.8 204.899C2678.94 190.978 2700.23 182.207 2723.35 180.33C2727.54 180.81 2731.25 184.04 2731.25 188.229Z" fill="#5D70D2"/>
<path d="M2979.85 304.002C2979.37 308.628 2976.14 311.857 2971.52 312.338H2786.82C2783.11 312.338 2781.28 315.13 2781.72 317.88C2791.45 353.533 2824.29 379.934 2862.72 379.934C2889.55 379.934 2915.51 366.493 2930.77 345.198C2932.17 343.321 2934.48 341.968 2937.23 341.968C2938.63 341.968 2940.02 342.448 2940.94 342.885L2956.21 351.656C2959.43 353.969 2960.83 358.595 2959 361.824C2936.79 393.768 2901.16 412.751 2862.72 412.751C2798.38 412.751 2746.08 360.428 2746.08 296.06C2746.08 231.693 2798.38 179.326 2862.72 179.326C2924.75 179.413 2980.77 228.071 2979.85 304.002ZM2781.67 273.892C2781.19 276.684 2783.07 279.434 2786.78 279.914H2938.63C2942.33 279.434 2944.17 276.684 2943.73 273.892C2934 238.239 2901.59 211.837 2862.72 211.837C2824.29 211.837 2791.4 238.239 2781.67 273.892Z" fill="#5D70D2"/>
</svg>
