<svg width="2210" height="668" viewBox="0 0 2210 668" fill="none" xmlns="http://www.w3.org/2000/svg">
<path d="M617.393 93.539C542.009 93.539 480.375 155.173 480.375 231.031C480.375 306.414 542.009 368.048 617.393 368.048C664.804 368.048 708.422 343.869 733.55 304.044C733.55 304.044 734.972 301.673 738.291 301.673C739.239 301.673 740.661 302.147 742.558 303.095L759.152 312.578C759.152 312.578 765.315 316.37 761.522 322.06C730.231 371.367 676.182 401.236 617.393 401.236C523.519 401.236 447.188 324.904 447.188 231.031C447.188 136.683 523.519 60.3513 617.393 60.3513C676.656 60.3513 731.653 90.6943 762.47 140.476C764.841 144.743 761.996 149.01 760.1 149.958L743.032 159.914C741.135 160.388 739.713 160.863 738.765 160.863C735.446 160.863 734.024 158.492 734.024 158.492C709.37 118.193 665.278 93.539 617.393 93.539Z" fill="#3843D0"/>
<path d="M906.844 399.34C840.943 399.34 787.368 345.765 787.368 279.864C787.368 213.963 840.943 160.388 906.844 160.388C972.745 160.388 1025.85 213.963 1025.85 279.864C1025.85 345.765 972.745 399.34 906.844 399.34ZM906.844 194.05C859.433 194.05 820.556 232.453 820.556 279.864C820.556 327.275 859.433 365.678 906.844 365.678C954.255 365.678 992.658 327.275 992.658 279.864C992.658 232.453 954.255 194.05 906.844 194.05Z" fill="#3843D0"/>
<path d="M1168.5 161.811C1222.55 161.811 1266.17 205.429 1266.17 259.477V389.383C1266.17 393.65 1262.85 397.443 1258.58 397.443H1240.57C1236.3 397.443 1232.98 394.124 1232.98 389.857V259.477C1232.98 223.919 1204.06 194.998 1168.5 194.998C1133.42 194.998 1104.5 223.919 1104.5 259.477V389.857C1104.02 394.124 1100.7 397.443 1096.44 397.443H1078.89C1074.63 397.443 1071.31 393.65 1071.31 389.383V173.189C1071.31 168.448 1074.63 165.13 1079.37 165.13H1096.44C1100.7 165.13 1104.02 168.448 1104.5 172.715V175.56C1104.5 179.353 1106.39 180.775 1108.76 180.775C1109.71 180.775 1110.66 180.775 1111.61 180.301C1127.73 168.448 1147.17 161.811 1168.5 161.811Z" fill="#3843D0"/>
<path d="M1418.41 161.811C1472.46 161.811 1516.07 205.429 1516.07 259.477V389.383C1516.07 393.65 1512.76 397.443 1508.49 397.443H1490.47C1486.21 397.443 1482.89 394.124 1482.89 389.857V259.477C1482.89 223.919 1453.97 194.998 1418.41 194.998C1383.32 194.998 1354.4 223.919 1354.4 259.477V389.857C1353.93 394.124 1350.61 397.443 1346.34 397.443H1328.8C1324.53 397.443 1321.22 393.65 1321.22 389.383V173.189C1321.22 168.448 1324.53 165.13 1329.28 165.13H1346.34C1350.61 165.13 1353.93 168.448 1354.4 172.715V175.56C1354.4 179.353 1356.3 180.775 1358.67 180.775C1359.62 180.775 1360.57 180.775 1361.52 180.301C1377.63 168.448 1397.07 161.811 1418.41 161.811Z" fill="#3843D0"/>
<path d="M1679.22 160.863C1742.75 160.863 1800.12 210.644 1799.17 288.398C1798.7 293.139 1795.38 296.458 1790.64 296.932H1601.47C1597.67 296.932 1595.78 299.777 1596.25 302.621C1606.21 339.128 1639.87 366.152 1679.22 366.152C1706.72 366.152 1733.27 352.403 1748.91 330.594C1750.34 328.697 1752.71 327.275 1755.55 327.275C1756.97 327.275 1758.4 327.749 1759.34 328.223L1774.99 337.231C1778.31 339.602 1779.73 344.343 1777.84 347.662C1755.08 380.375 1718.57 399.814 1679.22 399.814C1613.32 399.814 1559.74 346.239 1559.74 280.338C1559.74 214.437 1613.32 160.863 1679.22 160.863ZM1679.22 194.05C1639.87 194.05 1606.21 221.074 1596.25 257.581C1595.78 260.426 1597.67 263.27 1601.47 263.744H1756.97C1760.77 263.27 1762.66 260.426 1762.19 257.581C1752.23 221.074 1719.05 194.05 1679.22 194.05Z" fill="#3843D0"/>
<path d="M2055.68 325.853C2058.05 326.801 2059 329.171 2059 331.542C2059 332.964 2059 333.913 2058.05 334.861C2037.66 374.686 1996.89 399.814 1952.32 399.814C1886.42 399.814 1832.85 346.239 1832.85 280.338C1832.85 214.437 1886.42 160.863 1952.32 160.863C1996.41 160.863 2037.19 185.99 2057.57 224.867C2058.05 225.341 2058.52 226.29 2058.52 227.238C2058.52 230.083 2057.1 232.453 2055.2 233.401L2037.19 241.461C2035.77 242.409 2033.87 242.409 2032.45 242.409C2030.55 242.409 2029.13 241.935 2028.18 240.039C2013.48 212.066 1984.09 194.524 1952.32 194.524C1904.91 194.524 1866.03 232.927 1866.03 280.338C1866.03 327.749 1904.91 366.152 1952.32 366.152C1984.56 366.152 2014.43 348.136 2029.13 319.215C2029.6 317.793 2031.5 316.845 2033.39 316.845C2034.82 316.845 2036.24 317.319 2037.66 317.793L2055.68 325.853Z" fill="#3843D0"/>
<path d="M2151.87 198.317C2147.13 198.317 2143.34 202.11 2143.34 206.851V313.526C2143.34 349.084 2158.99 362.833 2201.66 364.256C2205.92 364.256 2209.72 368.048 2209.72 372.79V389.857C2209.72 394.124 2206.87 397.443 2202.6 397.917C2147.61 396.495 2110.15 373.738 2110.15 313.526V205.903C2109.68 201.636 2105.89 198.317 2101.62 198.317H2088.82C2085.02 197.843 2082.18 195.473 2081.71 192.154V171.767C2082.65 167.974 2085.5 165.13 2089.29 165.13H2102.57C2106.36 164.655 2109.68 161.811 2110.15 157.544V74.1005C2110.15 69.3594 2113.47 66.0406 2118.21 66.0406H2135.28C2139.55 66.0406 2142.87 69.3594 2143.34 73.6264V156.596C2143.34 161.337 2146.66 164.655 2150.93 165.13H2202.13C2206.4 165.13 2209.72 168.922 2209.72 173.189V190.731C2209.72 194.524 2206.87 197.843 2202.6 198.317H2151.87Z" fill="#3843D0"/>
<path d="M1520.74 541.205C1545 541.205 1564.54 560.936 1564.54 585.026C1564.54 609.293 1545 629.024 1520.74 629.024C1509.73 629.024 1499.78 625.016 1491.95 618.366H1492.12V623.43C1492.12 625.897 1490.01 627.791 1487.59 627.967H1481.29C1478.87 627.791 1476.93 626.029 1476.76 623.607V511.345C1477.11 509.055 1479 507.161 1481.29 507.161H1487.59C1490.05 507.161 1492.12 509.275 1492.12 511.698V551.687C1492.12 551.687 1492.12 551.863 1491.95 551.863L1492.12 551.687C1499.78 545.257 1509.73 541.205 1520.74 541.205ZM1520.74 613.829C1536.45 613.829 1549.35 600.925 1549.35 585.026C1549.35 569.304 1536.45 556.4 1520.74 556.4C1504.85 556.4 1492.12 569.304 1492.12 585.026C1492.12 600.925 1504.85 613.829 1520.74 613.829Z" fill="#3843D0"/>
<path d="M1647.05 542.612H1653.69C1656.64 542.612 1657.88 544.374 1657.88 546.268C1657.88 546.796 1657.88 547.325 1657.7 547.677L1618.43 638.798C1606.94 662.36 1589.46 666.544 1576.39 667.073C1574.1 666.897 1572.2 664.827 1572.2 662.36V656.415C1572.2 652.055 1575.86 651.702 1576.74 651.702C1586.34 651.174 1596.99 647.342 1604.65 632.324L1605.88 629.197C1606.23 628.317 1606.41 627.26 1606.41 626.599C1606.41 625.718 1606.23 624.837 1605.88 624.133C1594.88 598.985 1583.39 573.001 1572.2 547.853C1572.03 547.325 1571.85 546.796 1571.85 546.268C1571.85 544.374 1573.26 542.612 1576.03 542.612H1582.81C1584.93 542.612 1586.64 543.317 1587.88 545.915L1615.08 607.705C1615.26 607.705 1615.26 607.529 1615.26 607.529L1641.63 546.268C1642.82 543.493 1644.76 542.612 1647.05 542.612Z" fill="#3843D0"/>
<path d="M1793.16 511.92V623.653C1793.16 626.075 1791.23 628.013 1788.8 628.189H1782.38C1779.91 628.013 1778.02 626.075 1778.02 623.653V618.412V618.588C1770.36 625.018 1760.23 629.246 1749.4 629.246C1725.15 629.246 1705.42 609.515 1705.42 585.249C1705.42 560.982 1725.15 541.428 1749.4 541.428C1760.23 541.428 1770.18 545.259 1777.84 551.909L1778.02 552.086C1778.02 551.909 1778.02 551.909 1778.02 551.909V511.744C1778.19 509.321 1780.13 507.384 1782.55 507.384H1788.67C1791.27 507.384 1793.16 509.454 1793.16 511.92ZM1749.36 613.831C1765.08 613.831 1777.97 601.103 1777.97 585.205C1777.97 569.482 1765.08 556.578 1749.36 556.578C1733.47 556.578 1720.74 569.482 1720.74 585.205C1720.74 601.103 1733.51 613.831 1749.36 613.831Z" fill="#3843D0"/>
<path d="M1829.09 511.92V519.583C1829.09 522.049 1826.97 524.119 1824.55 524.119H1818.43C1815.84 524.119 1813.72 522.005 1813.72 519.583V511.92C1813.72 509.321 1815.84 507.207 1818.43 507.207H1824.55C1826.97 507.207 1829.09 509.277 1829.09 511.92ZM1829.09 546.977V623.256C1829.09 625.855 1826.97 627.969 1824.55 627.969H1818.43C1815.84 627.969 1813.72 625.855 1813.72 623.256V546.977C1813.72 544.378 1815.84 542.264 1818.43 542.264H1824.55C1826.97 542.264 1829.09 544.378 1829.09 546.977Z" fill="#3843D0"/>
<path d="M1943.15 541.203C1963.05 541.203 1979.3 557.454 1979.3 577.361V623.604C1979.3 625.85 1977.19 627.788 1974.94 627.964H1968.47C1966 627.788 1964.11 625.85 1964.11 623.428V577.361C1964.11 565.822 1954.69 556.397 1943.15 556.397C1931.66 556.397 1922.2 565.822 1922.2 577.361V623.604C1922.02 626.027 1920.09 627.788 1917.66 627.964H1911.37C1908.9 627.788 1906.83 625.85 1906.83 623.428V577.361C1906.83 565.822 1897.41 556.397 1885.88 556.397C1874.34 556.397 1864.92 565.822 1864.92 577.361V623.428C1864.92 625.895 1862.99 627.788 1860.57 627.964H1854.09C1851.8 627.788 1849.74 625.85 1849.74 623.604V546.796C1849.74 544.374 1851.85 542.26 1854.27 542.26H1860.39C1862.85 542.26 1864.92 544.374 1864.92 546.796V547.853C1870.87 543.669 1878.17 541.203 1885.88 541.203C1897.37 541.203 1907.67 546.444 1914.5 554.988H1914.67C1921.36 546.796 1931.66 541.203 1943.15 541.203Z" fill="#3843D0"/>
<path d="M2065.94 542.436H2072.05C2074.52 542.436 2076.41 544.374 2076.59 546.62V623.781C2076.41 626.247 2074.48 627.964 2072.23 627.964H2065.94C2063.34 627.964 2061.4 625.85 2061.4 623.428V618.54C2061.4 618.363 2061.4 618.363 2061.4 618.363V618.54C2055.1 624.485 2043.44 629.021 2032.78 629.021C2008.53 629.021 1988.8 609.467 1988.8 585.2C1988.8 560.934 2008.53 541.203 2032.78 541.203C2043.44 541.203 2053.56 545.211 2061.4 551.861V546.972C2061.4 544.55 2063.47 542.436 2065.94 542.436ZM2032.78 613.827C2048.5 613.827 2061.4 600.923 2061.4 585.2C2061.4 569.301 2048.5 556.573 2032.78 556.573C2016.89 556.573 2004.17 569.301 2004.17 585.2C2004.17 600.923 2016.89 613.827 2032.78 613.827Z" fill="#3843D0"/>
<path d="M2163.41 542.26H2169.53C2171.77 542.26 2173.71 544.198 2174.06 546.444V635.275C2174.06 657.252 2159.93 666.192 2139.86 666.677C2137.26 666.677 2135.32 664.739 2135.32 662.14V656.107C2135.32 653.641 2137.26 651.571 2139.86 651.571C2151.57 651.218 2158.7 648.62 2158.7 635.319V618.363C2151.04 625.014 2141.09 629.021 2130.08 629.021C2106 629.021 2086.28 609.291 2086.28 585.024C2086.28 560.934 2106 541.203 2130.08 541.203C2140.74 541.203 2150.69 545.035 2158.35 551.333C2158.52 551.685 2158.7 551.685 2158.7 551.861L2158.87 546.972C2158.87 544.374 2160.81 542.26 2163.41 542.26ZM2130.08 613.827C2145.98 613.827 2158.7 600.923 2158.7 585.024C2158.7 569.301 2145.98 556.397 2130.08 556.397C2114.37 556.397 2101.47 569.301 2101.47 585.024C2101.47 600.923 2114.37 613.827 2130.08 613.827Z" fill="#3843D0"/>
<path d="M2209.06 511.92V519.583C2209.06 522.049 2206.95 524.119 2204.52 524.119H2198.4C2195.76 524.119 2193.69 522.005 2193.69 519.583V511.92C2193.69 509.321 2195.81 507.207 2198.4 507.207H2204.52C2206.99 507.207 2209.06 509.277 2209.06 511.92ZM2209.06 546.977V623.256C2209.06 625.855 2206.95 627.969 2204.52 627.969H2198.4C2195.76 627.969 2193.69 625.855 2193.69 623.256V546.977C2193.69 544.378 2195.81 542.264 2198.4 542.264H2204.52C2206.99 542.264 2209.06 544.378 2209.06 546.977Z" fill="#3843D0"/>
<path d="M54.1867 235.04C51.5628 232.845 45.804 225.525 41.1367 218.507C20.7141 187.746 23.2796 150.861 47.9566 123.763C59.6711 111.142 98.2339 89.0593 120.926 82.4122C156.766 71.7653 202.475 64.7291 268.014 59.7998L291.235 58.1451L260.166 74.3706C192.032 110.45 123.313 164.577 75.2937 220.318C67.0158 230.07 59.8118 238.064 59.4635 238.261C58.9411 238.558 56.7119 237.06 54.1867 235.04Z" fill="#3843D0"/>
<path d="M337.528 53.4848C315.309 57.288 279.679 75.9038 244.449 102.326C170.586 157.773 109.735 241.444 93.1207 310.302C82.7119 354.139 93.3209 391.171 122.145 410.988C132.754 418.194 158.776 427.201 161.178 424.399C162.179 423.398 163.981 415.391 165.382 406.584C166.783 397.977 170.386 380.161 173.589 367.351C205.616 235.839 277.877 125.946 370.155 68.4975C387.57 57.6883 387.57 56.8877 368.754 53.4848C355.343 51.0827 352.941 51.0827 337.528 53.4848Z" fill="#3843D0"/>
</svg>
