<svg width="2408" height="600" viewBox="0 0 2408 600" fill="none" xmlns="http://www.w3.org/2000/svg">
<path d="M122.819 213.943L98.0569 208.99C84.1902 207.009 75.276 203.048 71.3141 199.086C67.3522 195.124 65.3714 190.171 65.3714 184.229C65.3714 178.286 68.3427 173.333 74.2856 168.381C80.2284 164.419 89.1426 162.438 101.028 162.438C112.914 162.438 123.809 164.419 130.743 167.39C138.666 170.362 146.59 174.324 154.514 179.276C156.495 181.257 160.457 182.248 163.428 183.238C167.39 184.229 170.362 185.219 173.333 185.219C177.295 185.219 180.266 184.228 183.238 182.248C186.209 180.267 188.19 178.286 191.162 175.314C195.123 170.362 197.104 163.429 197.104 156.495C197.104 153.524 196.114 149.562 195.123 146.591C193.142 143.619 191.161 139.657 187.2 136.686C180.266 131.733 170.362 126.781 157.485 120.838C143.619 115.886 126.781 112.914 104.99 112.914C90.1332 112.914 76.2665 114.895 64.3808 117.867C51.5047 120.838 41.5999 125.79 32.6857 132.724C23.7714 139.657 16.838 147.581 11.8857 156.495C6.93329 166.4 4.95237 177.295 4.95237 189.181C4.95237 201.067 6.9333 210.971 10.8952 218.895C14.8571 226.819 19.8095 233.752 26.7428 239.695C33.6761 245.638 41.5999 249.6 50.5142 253.562C59.4284 257.524 70.3236 259.504 81.2189 261.485L108.952 266.438C121.828 268.419 130.743 272.381 134.705 276.343C138.666 280.304 140.647 286.247 140.647 291.2C140.647 298.133 137.676 304.076 131.733 309.028C125.79 312.99 115.885 315.962 103.009 315.962C92.114 315.962 83.1998 314.971 76.2665 312C69.3332 309.028 63.3904 306.057 57.4475 303.085C52.4952 300.114 47.5428 296.152 42.5904 294.171C38.6285 291.2 33.6761 290.209 28.7238 290.209C23.7714 290.209 18.819 292.19 14.8571 295.162C10.8952 298.133 7.92379 302.095 4.95237 307.047C1.98095 312.99 0 318.933 0 324.876C0 327.847 0.990504 331.809 2.97145 335.771C4.9524 339.733 7.92376 342.704 11.8857 345.676C20.7999 352.609 32.6857 357.561 47.5428 361.523C62.3999 365.485 78.2475 368.457 97.0665 368.457C129.752 368.457 154.514 361.523 173.333 348.647C192.152 335.771 201.066 315.962 201.066 290.209C201.066 267.428 195.123 250.59 182.247 239.695C169.371 228.8 150.552 218.895 122.819 213.943Z" fill="#09263A"/>
<path d="M450.666 124.8C444.723 120.838 437.79 118.857 427.885 118.857C415.999 118.857 408.075 120.838 403.123 124.8C398.171 128.762 395.199 135.695 395.199 145.6V237.714C395.199 242.666 395.199 248.609 395.199 255.542C395.199 262.476 394.209 269.409 392.228 274.361C391.238 278.323 390.247 282.285 387.276 286.247C385.295 290.209 382.323 294.171 378.361 298.133C374.399 302.095 369.447 305.066 363.504 308.038C357.561 311.009 350.628 311.999 342.704 311.999C334.78 311.999 327.847 311.009 321.904 308.038C315.961 306.057 311.999 301.104 309.028 295.161C307.047 292.19 306.057 288.228 306.057 283.276C305.066 278.323 305.066 272.38 305.066 266.438V143.619C305.066 134.705 302.095 127.771 296.152 123.809C290.209 119.847 282.285 117.866 273.371 117.866C262.476 117.866 254.552 119.847 249.6 123.809C244.647 127.771 241.676 134.705 241.676 143.619V266.438C241.676 278.323 242.666 290.209 243.657 303.085C245.638 315.961 249.6 327.847 257.523 338.742C273.371 357.561 295.161 367.466 323.885 367.466C342.704 367.466 357.561 363.504 369.447 356.571C381.333 349.638 390.247 340.723 396.19 331.809V335.771C396.19 346.666 399.161 353.599 405.104 357.561C411.047 361.523 417.98 362.514 425.904 362.514C437.79 362.514 445.714 359.542 450.666 354.59C455.618 349.638 457.599 342.704 457.599 333.79V143.619C458.59 134.705 455.618 128.762 450.666 124.8Z" fill="#09263A"/>
<path d="M654.703 124.801C652.722 121.829 649.751 118.858 645.789 116.877C641.827 114.896 635.884 113.906 628.951 113.906C616.074 113.906 604.189 117.868 594.284 124.801C584.379 131.734 576.456 140.648 570.513 150.553V140.648C570.513 132.725 567.541 126.782 562.589 123.81C556.646 120.839 549.713 118.858 540.799 118.858C528.913 118.858 520.989 121.829 517.027 126.782C512.075 131.734 510.094 137.677 510.094 144.61V336.762C510.094 354.591 520.989 364.496 541.789 364.496C552.684 364.496 560.608 362.515 565.56 357.562C570.513 352.61 572.494 346.667 572.494 336.762V246.629C572.494 231.772 573.484 218.896 576.455 208.991C578.436 198.096 585.37 191.163 595.275 186.21C602.208 183.239 609.141 180.267 615.084 179.277C621.027 178.287 626.97 177.296 632.912 175.315C638.855 174.325 643.808 173.334 646.779 170.363C649.751 168.382 652.722 165.41 654.703 163.429C656.684 160.458 657.674 157.487 657.674 154.515C657.674 151.544 658.665 148.572 658.665 145.601C658.665 142.629 658.665 139.658 657.674 136.687C657.674 130.744 656.684 127.772 654.703 124.801Z" fill="#09263A"/>
<path d="M787.432 113.906C766.632 113.906 748.803 117.868 732.955 124.801C718.098 131.734 705.222 141.639 695.317 153.525C685.413 165.41 678.479 179.277 673.527 195.124C668.575 210.972 666.594 226.82 666.594 242.667C666.594 263.467 669.565 282.286 675.508 298.134C681.451 313.981 689.375 326.858 700.27 336.762C711.165 346.667 724.041 354.591 739.889 359.543C755.736 364.496 772.574 366.477 791.393 366.477C804.27 366.477 818.136 364.496 832.003 361.524C845.87 358.553 857.755 353.6 867.66 347.658C874.593 342.705 880.536 338.743 883.508 334.781C886.479 330.819 888.46 325.867 888.46 319.924C888.46 312 885.488 305.067 880.536 299.124C875.584 293.181 869.641 290.21 863.698 290.21C857.755 290.21 853.793 291.2 849.831 294.172C845.87 297.143 841.908 299.124 836.955 301.105C832.003 303.086 826.06 306.058 819.127 310.02C812.193 312.991 804.27 314.972 794.365 314.972C756.727 314.972 735.927 296.153 732.955 258.515H866.669C876.574 258.515 884.498 256.534 889.45 253.563C894.403 250.591 897.374 243.658 897.374 234.743C897.374 196.115 887.469 166.401 867.66 145.601C847.851 124.801 820.117 113.906 787.432 113.906ZM733.946 209.982C735.927 194.134 740.879 183.239 750.784 175.315C760.689 167.391 771.584 163.429 785.451 163.429C793.374 163.429 801.298 164.42 806.251 167.391C812.193 170.363 817.146 174.325 821.108 178.286C825.07 183.239 828.041 188.191 830.022 193.144C832.003 199.086 832.993 204.039 832.993 209.982H733.946Z" fill="#09263A"/>
<path d="M1124.19 141.639C1102.4 125.791 1088.53 100.039 1088.53 71.3152C1088.53 65.3723 1089.52 60.42 1090.51 54.4772C1086.55 47.5438 1082.59 41.601 1076.64 39.62C1069.71 36.6486 1062.78 35.6582 1054.85 35.6582C1046.93 35.6582 1040 37.6392 1033.06 40.6106C1026.13 43.582 1021.18 49.5247 1017.21 58.439L916.186 320.915C914.205 325.867 913.215 330.819 913.215 335.772C913.215 343.696 916.186 349.638 921.139 354.591C927.082 359.543 935.996 362.515 947.881 362.515C953.824 362.515 958.777 361.524 964.719 358.553C969.672 355.581 973.634 351.619 975.615 344.686L992.453 300.115H1114.28L1133.1 343.696C1138.05 355.581 1148.95 362.515 1163.8 362.515C1174.7 362.515 1182.62 359.543 1187.58 354.591C1192.53 348.648 1195.5 342.705 1195.5 334.781C1195.5 329.829 1194.51 325.867 1192.53 320.915L1124.19 141.639ZM1012.26 244.648L1053.86 122.82L1094.47 244.648H1012.26Z" fill="#09263A"/>
<path d="M1413.41 35.6582C1405.49 35.6582 1397.56 37.6392 1391.62 40.6106C1384.68 43.582 1381.71 50.5153 1381.71 60.4201V149.563C1379.73 145.601 1376.76 141.639 1372.8 136.687C1368.84 132.725 1364.88 128.763 1358.93 124.801C1353.98 121.829 1347.05 118.858 1340.11 116.877C1333.18 114.896 1324.27 113.906 1315.35 113.906C1298.51 113.906 1283.66 116.877 1270.78 123.81C1257.9 130.744 1247.01 138.667 1237.1 150.553C1228.19 161.448 1221.26 175.315 1216.3 190.172C1211.35 205.029 1209.37 221.867 1209.37 240.686C1209.37 259.505 1211.35 276.343 1216.3 292.191C1221.26 308.039 1227.2 320.915 1236.11 332.8C1245.03 343.696 1255.92 352.61 1268.8 359.543C1281.68 365.486 1296.53 369.448 1313.37 369.448C1325.26 369.448 1336.15 367.467 1345.07 364.496C1353.98 361.524 1360.91 357.562 1365.87 353.6C1372.8 348.648 1377.75 343.696 1381.71 337.753V339.734C1381.71 348.648 1383.69 355.581 1388.65 359.543C1393.6 363.505 1401.52 365.486 1413.41 365.486C1434.21 365.486 1444.11 356.572 1444.11 339.734V64.3819C1444.11 56.4581 1441.14 50.5153 1436.19 45.5629C1432.23 37.6392 1424.3 35.6582 1413.41 35.6582ZM1369.83 294.172C1360.91 307.048 1347.05 313.981 1329.22 313.981C1311.39 313.981 1297.52 307.048 1288.61 293.181C1279.69 279.315 1274.74 261.486 1274.74 240.686C1274.74 229.791 1275.73 220.877 1278.7 211.962C1280.69 203.048 1284.65 195.124 1288.61 188.191C1293.56 181.258 1298.51 176.305 1305.45 172.344C1312.38 168.382 1320.3 166.401 1329.22 166.401C1338.13 166.401 1345.07 168.382 1352 172.344C1358.93 176.305 1363.89 181.258 1368.84 188.191C1372.8 195.124 1376.76 203.048 1378.74 211.962C1380.72 220.877 1381.71 230.782 1381.71 240.686C1383.69 263.467 1379.73 281.296 1369.83 294.172Z" fill="#09263A"/>
<path d="M1697.67 143.62C1689.74 133.715 1680.83 126.782 1670.93 121.829C1661.02 116.877 1647.15 113.906 1631.31 113.906C1614.47 113.906 1599.61 117.868 1587.72 124.801C1575.84 131.734 1566.93 139.658 1560.98 148.572V62.401C1560.98 56.4581 1559.99 52.4961 1558.01 48.5342C1556.03 44.5724 1554.05 42.5915 1551.08 40.6106C1548.11 38.6296 1545.13 37.6391 1541.17 36.6486C1537.21 35.6581 1533.25 35.6582 1529.29 35.6582C1517.4 35.6582 1509.48 37.6391 1504.53 42.5915C1499.57 47.5439 1496.6 53.4866 1496.6 61.4104V336.762C1496.6 345.677 1499.57 352.61 1504.53 356.572C1510.47 360.534 1517.4 362.515 1527.31 362.515C1539.19 362.515 1547.12 360.534 1552.07 356.572C1557.02 352.61 1559.99 345.677 1559.99 335.772V243.658C1559.99 238.705 1559.99 232.763 1559.99 225.829C1559.99 218.896 1560.98 211.962 1562.96 207.01C1563.95 203.048 1564.94 199.086 1567.92 195.124C1569.9 191.163 1572.87 187.201 1576.83 183.239C1580.79 179.277 1585.74 176.306 1591.69 174.325C1597.63 172.344 1604.56 170.363 1612.49 170.363C1620.41 170.363 1627.34 171.353 1633.29 174.325C1639.23 176.306 1643.19 181.258 1646.16 187.201C1649.13 193.143 1650.13 203.048 1650.13 216.915V337.753C1650.13 346.667 1653.1 353.6 1659.04 357.562C1664.98 361.524 1672.91 363.505 1681.82 363.505C1692.72 363.505 1700.64 361.524 1705.59 357.562C1710.54 353.6 1713.52 346.667 1713.52 337.753V214.934C1713.52 203.048 1712.52 191.163 1711.53 178.286C1710.54 165.41 1705.59 153.525 1697.67 143.62Z" fill="#09263A"/>
<path d="M1872.99 113.906C1852.19 113.906 1834.36 117.868 1818.51 124.801C1803.65 131.734 1790.78 141.639 1780.87 153.525C1770.97 165.41 1764.03 179.277 1759.08 195.124C1754.13 210.972 1752.15 226.82 1752.15 242.667C1752.15 263.467 1755.12 282.286 1761.06 298.134C1767.01 313.981 1774.93 326.858 1785.82 336.762C1796.72 346.667 1809.6 354.591 1825.44 359.543C1841.29 364.496 1858.13 366.477 1876.95 366.477C1889.82 366.477 1903.69 364.496 1917.56 361.524C1931.42 358.553 1943.31 353.6 1953.21 347.658C1960.15 342.705 1966.09 338.743 1969.06 334.781C1972.03 330.819 1974.01 325.867 1974.01 319.924C1974.01 312 1971.04 305.067 1966.09 299.124C1961.14 293.181 1955.2 290.21 1949.25 290.21C1943.31 290.21 1939.35 291.2 1935.39 294.172C1931.42 297.143 1927.46 299.124 1922.51 301.105C1917.56 303.086 1911.61 306.058 1904.68 310.02C1897.75 312.991 1889.82 314.972 1879.92 314.972C1842.28 314.972 1821.48 296.153 1818.51 258.515H1952.22C1962.13 258.515 1970.05 256.534 1975.01 253.563C1979.96 250.591 1982.93 243.658 1982.93 234.743C1982.93 196.115 1973.02 166.401 1953.21 145.601C1933.41 124.801 1906.66 113.906 1872.99 113.906ZM1820.49 209.982C1822.47 194.134 1827.42 183.239 1837.33 175.315C1847.23 167.391 1858.13 163.429 1872 163.429C1879.92 163.429 1887.84 164.42 1892.8 167.391C1898.74 170.363 1903.69 174.325 1907.65 178.286C1911.61 183.239 1914.59 188.191 1916.57 193.144C1918.55 199.086 1919.54 204.039 1919.54 209.982H1820.49Z" fill="#09263A"/>
<path d="M2165.18 124.801C2163.19 121.829 2160.22 118.858 2156.26 116.877C2152.3 114.896 2146.36 113.906 2139.42 113.906C2126.55 113.906 2114.66 117.868 2104.76 124.801C2094.85 131.734 2086.93 140.648 2080.99 150.553V140.648C2080.99 132.725 2078.01 126.782 2073.06 123.81C2067.12 120.839 2060.19 118.858 2051.27 118.858C2039.39 118.858 2031.46 121.829 2027.5 126.782C2022.55 131.734 2020.57 137.677 2020.57 144.61V336.762C2020.57 354.591 2031.46 364.496 2052.26 364.496C2063.16 364.496 2071.08 362.515 2076.03 357.562C2080.99 352.61 2082.97 346.667 2082.97 336.762V246.629C2082.97 231.772 2083.96 218.896 2086.93 208.991C2088.91 198.096 2095.84 191.163 2105.75 186.21C2112.68 183.239 2119.61 180.267 2125.56 179.277C2131.5 178.287 2137.44 177.296 2143.39 175.315C2149.33 174.325 2154.28 173.334 2157.25 170.363C2160.22 168.382 2163.19 165.41 2165.18 163.429C2167.16 160.458 2168.15 157.487 2168.15 154.515C2168.15 151.544 2169.14 148.572 2169.14 145.601C2169.14 142.629 2169.14 139.658 2168.15 136.687C2168.15 130.744 2167.16 127.772 2165.18 124.801Z" fill="#09263A"/>
<path d="M2378.13 144.61C2358.32 123.81 2331.58 113.906 2297.9 113.906C2277.1 113.906 2259.28 117.868 2243.43 124.801C2228.57 131.734 2215.7 141.639 2205.79 153.525C2195.89 165.41 2188.95 179.277 2184 195.124C2179.05 210.972 2177.07 226.82 2177.07 242.667C2177.07 263.467 2180.04 282.286 2185.98 298.134C2191.92 313.981 2199.85 326.858 2210.74 336.762C2221.64 346.667 2234.51 354.591 2250.36 359.543C2266.21 364.496 2283.05 366.477 2301.87 366.477C2314.74 366.477 2328.61 364.496 2342.48 361.524C2356.34 358.553 2368.23 353.6 2378.13 347.658C2385.07 342.705 2391.01 338.743 2393.98 334.781C2396.95 330.819 2398.93 325.867 2398.93 319.924C2398.93 312 2395.96 305.067 2391.01 299.124C2386.06 293.181 2380.11 290.21 2374.17 290.21C2368.23 290.21 2364.27 291.2 2360.3 294.172C2356.34 297.143 2352.38 299.124 2347.43 301.105C2342.48 303.086 2336.53 306.058 2329.6 310.02C2322.67 312.991 2314.74 314.972 2304.84 314.972C2267.2 314.972 2246.4 296.153 2243.43 258.515H2377.14C2387.05 258.515 2394.97 256.534 2399.92 253.563C2404.88 250.591 2407.85 243.658 2407.85 234.743C2407.85 195.124 2397.94 165.41 2378.13 144.61ZM2245.41 209.982C2247.39 194.134 2252.34 183.239 2262.25 175.315C2272.15 167.391 2283.05 163.429 2296.91 163.429C2304.84 163.429 2312.76 164.42 2317.71 167.391C2323.66 170.363 2328.61 174.325 2332.57 178.286C2336.53 183.239 2339.5 188.191 2341.49 193.144C2343.47 199.086 2344.46 204.039 2344.46 209.982H2245.41Z" fill="#09263A"/>
<path fill-rule="evenodd" clip-rule="evenodd" d="M1177.67 0.00012207C1217.29 0.00012207 1248.98 31.6953 1248.98 71.3142C1248.98 110.933 1217.29 142.628 1177.67 142.628C1138.05 142.628 1106.36 110.933 1106.36 71.3142C1106.36 31.6953 1138.05 0.00012207 1177.67 0.00012207ZM1198.47 32.6877L1217.29 42.5924L1192.53 90.1352L1183.61 105.983C1183.61 106.973 1182.62 107.964 1181.63 108.954H1180.64C1180.64 108.954 1179.65 109.945 1178.66 109.945H1177.67C1176.68 110.935 1175.69 110.935 1174.7 110.935H1174.7H1174.7C1173.71 110.935 1171.73 110.935 1170.74 109.945H1169.75H1168.76L1166.78 107.964C1166.78 106.973 1165.79 106.973 1165.79 106.973L1142.01 79.2399C1138.05 75.278 1138.05 68.3447 1143 64.3828C1146.97 60.4209 1153.9 60.421 1157.86 65.3734L1171.73 81.2209L1198.47 32.6877Z" fill="#F05D5A"/>
<path d="M1754.86 482.489C1777.44 482.489 1795.64 500.855 1795.64 523.28C1795.64 545.868 1777.44 564.234 1754.86 564.234C1744.62 564.234 1735.35 560.503 1728.06 554.313H1728.22V559.028C1728.22 561.323 1726.26 563.086 1724 563.25H1718.14C1715.89 563.086 1714.09 561.446 1713.92 559.191V454.695C1714.25 452.563 1716.01 450.8 1718.14 450.8H1724C1726.3 450.8 1728.22 452.768 1728.22 455.023V492.246C1728.22 492.246 1728.22 492.41 1728.06 492.41L1728.22 492.246C1735.35 486.261 1744.62 482.489 1754.86 482.489ZM1754.86 550.091C1769.49 550.091 1781.5 538.079 1781.5 523.28C1781.5 508.644 1769.49 496.633 1754.86 496.633C1740.07 496.633 1728.22 508.644 1728.22 523.28C1728.22 538.079 1740.07 550.091 1754.86 550.091Z" fill="#09263A"/>
<path d="M1872.43 483.802H1878.62C1881.36 483.802 1882.51 485.442 1882.51 487.204C1882.51 487.696 1882.51 488.188 1882.35 488.516L1845.79 573.335C1835.1 595.268 1818.83 599.162 1806.66 599.654C1804.53 599.49 1802.77 597.564 1802.77 595.268V589.734C1802.77 585.675 1806.17 585.347 1806.99 585.347C1815.92 584.855 1825.84 581.289 1832.97 567.309L1834.11 564.398C1834.44 563.579 1834.61 562.595 1834.61 561.98C1834.61 561.16 1834.44 560.34 1834.11 559.684C1823.87 536.276 1813.17 512.089 1802.77 488.68C1802.6 488.188 1802.44 487.696 1802.44 487.204C1802.44 485.442 1803.75 483.802 1806.33 483.802H1812.64C1814.61 483.802 1816.21 484.458 1817.35 486.876L1842.68 544.393C1842.84 544.393 1842.84 544.229 1842.84 544.229L1867.39 487.204C1868.5 484.622 1870.3 483.802 1872.43 483.802Z" fill="#09263A"/>
<path d="M2008.44 455.227V559.232C2008.44 561.487 2006.64 563.291 2004.38 563.455H1998.4C1996.11 563.291 1994.34 561.487 1994.34 559.232V554.354V554.518C1987.21 560.503 1977.79 564.439 1967.71 564.439C1945.13 564.439 1926.77 546.073 1926.77 523.485C1926.77 500.896 1945.13 482.694 1967.71 482.694C1977.79 482.694 1987.05 486.261 1994.18 492.451L1994.34 492.615C1994.34 492.451 1994.34 492.451 1994.34 492.451V455.063C1994.51 452.809 1996.31 451.005 1998.57 451.005H2004.26C2006.68 451.005 2008.44 452.932 2008.44 455.227ZM1967.67 550.09C1982.3 550.09 1994.3 538.243 1994.3 523.444C1994.3 508.808 1982.3 496.797 1967.67 496.797C1952.87 496.797 1941.03 508.808 1941.03 523.444C1941.03 538.243 1952.91 550.09 1967.67 550.09Z" fill="#09263A"/>
<path d="M2041.88 455.228V462.361C2041.88 464.657 2039.91 466.583 2037.66 466.583H2031.96C2029.55 466.583 2027.58 464.616 2027.58 462.361V455.228C2027.58 452.809 2029.55 450.841 2031.96 450.841H2037.66C2039.91 450.841 2041.88 452.768 2041.88 455.228ZM2041.88 487.86V558.864C2041.88 561.283 2039.91 563.25 2037.66 563.25H2031.96C2029.55 563.25 2027.58 561.283 2027.58 558.864V487.86C2027.58 485.441 2029.55 483.474 2031.96 483.474H2037.66C2039.91 483.474 2041.88 485.441 2041.88 487.86Z" fill="#09263A"/>
<path d="M2148.06 482.49C2166.58 482.49 2181.7 497.617 2181.7 516.147V559.192C2181.7 561.283 2179.74 563.086 2177.65 563.25H2171.62C2169.33 563.086 2167.57 561.283 2167.57 559.028V516.147C2167.57 505.406 2158.8 496.633 2148.06 496.633C2137.36 496.633 2128.55 505.406 2128.55 516.147V559.192C2128.39 561.447 2126.59 563.086 2124.33 563.25H2118.47C2116.18 563.086 2114.25 561.283 2114.25 559.028V516.147C2114.25 505.406 2105.48 496.633 2094.75 496.633C2084.01 496.633 2075.24 505.406 2075.24 516.147V559.028C2075.24 561.324 2073.44 563.086 2071.18 563.25H2065.16C2063.03 563.086 2061.1 561.283 2061.1 559.192V487.696C2061.1 485.441 2063.07 483.474 2065.32 483.474H2071.02C2073.31 483.474 2075.24 485.441 2075.24 487.696V488.68C2080.77 484.786 2087.57 482.49 2094.75 482.49C2105.44 482.49 2115.03 487.368 2121.38 495.321H2121.55C2127.78 487.696 2137.36 482.49 2148.06 482.49Z" fill="#09263A"/>
<path d="M2262.35 483.638H2268.05C2270.34 483.638 2272.1 485.441 2272.27 487.532V559.356C2272.1 561.652 2270.3 563.25 2268.21 563.25H2262.35C2259.93 563.25 2258.13 561.283 2258.13 559.028V554.477C2258.13 554.314 2258.13 554.313 2258.13 554.313V554.477C2252.27 560.012 2241.41 564.234 2231.49 564.234C2208.91 564.234 2190.55 546.032 2190.55 523.444C2190.55 500.856 2208.91 482.49 2231.49 482.49C2241.41 482.49 2250.84 486.22 2258.13 492.411V487.86C2258.13 485.605 2260.06 483.638 2262.35 483.638ZM2231.49 550.091C2246.12 550.091 2258.13 538.079 2258.13 523.444C2258.13 508.645 2246.12 496.797 2231.49 496.797C2216.7 496.797 2204.86 508.645 2204.86 523.444C2204.86 538.079 2216.7 550.091 2231.49 550.091Z" fill="#09263A"/>
<path d="M2353.08 483.474H2358.78C2360.87 483.474 2362.67 485.277 2363 487.368V570.056C2363 590.512 2349.84 598.834 2331.16 599.285C2328.74 599.285 2326.94 597.481 2326.94 595.063V589.446C2326.94 587.151 2328.74 585.224 2331.16 585.224C2342.06 584.896 2348.7 582.477 2348.7 570.097V554.313C2341.57 560.504 2332.3 564.234 2322.06 564.234C2299.64 564.234 2281.29 545.868 2281.29 523.28C2281.29 500.856 2299.64 482.49 2322.06 482.49C2331.98 482.49 2341.24 486.056 2348.37 491.919C2348.53 492.247 2348.7 492.247 2348.7 492.411L2348.86 487.86C2348.86 485.441 2350.66 483.474 2353.08 483.474ZM2322.06 550.091C2336.85 550.091 2348.7 538.079 2348.7 523.28C2348.7 508.645 2336.85 496.633 2322.06 496.633C2307.43 496.633 2295.42 508.645 2295.42 523.28C2295.42 538.079 2307.43 550.091 2322.06 550.091Z" fill="#09263A"/>
<path d="M2395.58 455.228V462.361C2395.58 464.657 2393.61 466.583 2391.35 466.583H2385.66C2383.2 466.583 2381.27 464.616 2381.27 462.361V455.228C2381.27 452.809 2383.24 450.841 2385.66 450.841H2391.35C2393.65 450.841 2395.58 452.768 2395.58 455.228ZM2395.58 487.86V558.864C2395.58 561.283 2393.61 563.25 2391.35 563.25H2385.66C2383.2 563.25 2381.27 561.283 2381.27 558.864V487.86C2381.27 485.441 2383.24 483.474 2385.66 483.474H2391.35C2393.65 483.474 2395.58 485.441 2395.58 487.86Z" fill="#09263A"/>
</svg>
