<?xml version="1.0" encoding="UTF-8"?>
<svg xmlns="http://www.w3.org/2000/svg" width="78" height="46" viewBox="0 0 78 46" fill="none">
  <g id="tula-logo 1" clip-path="url(#clip0_1239_1088)">
    <g id="Layer 2">
      <g id="Layer 1">
        <path id="Vector" d="M0.5 4.51678V1.52637H17.5529V4.51678H10.606V32.1062H7.43232V4.51678H0.5Z" fill="#9895B2"></path>
        <path id="Vector_2" d="M19.5128 9.47681H22.4378V20.0439C22.3662 21.8273 22.5086 23.6127 22.8619 25.3634C23.2495 26.7086 24.1097 27.8752 25.2897 28.6557C26.5513 29.484 28.0438 29.9061 29.5603 29.8634C31.0489 29.8997 32.5133 29.4884 33.7577 28.6845C34.8811 27.9447 35.7203 26.8566 36.1416 25.5934C36.5337 23.7703 36.6861 21.9052 36.5949 20.0439V9.47681H39.6077V20.5902C39.744 22.9867 39.3755 25.3849 38.5255 27.635C37.8279 29.1787 36.6636 30.4738 35.1909 31.3442C33.4855 32.2905 31.5465 32.7534 29.5895 32.6813C27.6037 32.7627 25.634 32.2997 23.9003 31.3442C22.4184 30.4636 21.2449 29.1596 20.5365 27.6062C19.6918 25.3047 19.319 22.8616 19.4397 20.4177L19.5128 9.47681Z" fill="#9895B2"></path>
        <path id="Vector_3" d="M45.7065 0.75H48.6316V32.1062H45.7065V0.75Z" fill="#9895B2"></path>
        <path id="Vector_4" d="M77.7499 9.47692V32.1063H74.8249V28.2101C73.7097 29.6039 72.3033 30.7463 70.7006 31.56C69.1203 32.3155 67.3829 32.6994 65.6257 32.6814C64.0661 32.7056 62.5186 32.4085 61.0829 31.8093C59.6471 31.21 58.3549 30.3219 57.2894 29.2022C56.1613 28.0929 55.2727 26.771 54.6771 25.3159C54.0815 23.8607 53.7911 22.3023 53.8232 20.7341C53.8003 19.1796 54.0982 17.6366 54.699 16.1984C55.2998 14.7603 56.1909 13.4568 57.3186 12.3667C58.3993 11.2514 59.7029 10.3679 61.1476 9.77165C62.5923 9.17539 64.1468 8.87924 65.7134 8.90184C67.4969 8.87582 69.2597 9.28064 70.8469 10.0807C72.4416 10.9614 73.8041 12.1974 74.8249 13.6894V9.47692H77.7499ZM65.9182 11.7053C64.3159 11.6944 62.7401 12.1066 61.3551 12.8986C59.9485 13.6952 58.7942 14.8598 58.0206 16.2629C57.2112 17.6526 56.7854 19.2262 56.7854 20.8276C56.7854 22.4289 57.2112 24.0025 58.0206 25.3922C58.8054 26.7994 59.9626 27.9718 61.3698 28.7852C62.7287 29.5914 64.2871 30.0142 65.8743 30.0073C67.4911 30.009 69.08 29.5925 70.4812 28.7996C71.8885 28.0442 73.0496 26.9127 73.8304 25.536C74.6574 24.1184 75.0911 22.5121 75.0881 20.8779C75.1223 19.667 74.9067 18.4619 74.4542 17.3351C74.0018 16.2084 73.3219 15.1834 72.4556 14.322C71.6134 13.4596 70.5962 12.7811 69.4699 12.3303C68.3437 11.8795 67.1336 11.6666 65.9182 11.7053Z" fill="#9895B2"></path>
        <path id="Vector_5" d="M5.10693 40.4449V39.8842H8.28059V40.4449H6.99358V45.6062H6.35007V40.4449H5.10693Z" fill="#9895B2"></path>
        <path id="Vector_6" d="M9.14355 39.8842H9.72856V43.3346C9.71379 43.5884 9.71379 43.8428 9.72856 44.0966C9.74694 44.3 9.81194 44.4966 9.91869 44.6717C10.0526 44.8326 10.2229 44.9606 10.4159 45.0455C10.6208 45.1453 10.8455 45.1993 11.0741 45.2037C11.267 45.2035 11.4573 45.1592 11.6298 45.0743C11.8021 45.0021 11.953 44.8884 12.0686 44.7436C12.1911 44.5904 12.2807 44.4143 12.3318 44.226C12.3578 43.9294 12.3578 43.6312 12.3318 43.3346V39.8842H12.9022V43.3346C12.9169 43.7517 12.8676 44.1685 12.756 44.5711C12.644 44.9009 12.429 45.1877 12.1417 45.3906C11.8284 45.6297 11.4414 45.7566 11.0448 45.75C10.6203 45.7611 10.2023 45.6459 9.84556 45.4193C9.56021 45.1986 9.35919 44.8895 9.27518 44.5423C9.18126 44.1467 9.14191 43.7405 9.15818 43.3346L9.14355 39.8842Z" fill="#9895B2"></path>
        <path id="Vector_7" d="M14.4526 39.8842H15.023V45.0455H17.2607V45.6062H14.4526V39.8842Z" fill="#9895B2"></path>
        <path id="Vector_8" d="M20.5803 39.8842L23.286 45.635H22.6571L21.7357 43.7516H19.2348L18.3281 45.635H17.6846L20.4341 39.8842H20.5803ZM20.4926 41.1062L19.5127 43.1765H21.5017L20.4926 41.1062Z" fill="#9895B2"></path>
        <path id="Vector_9" d="M26.4595 39.8842H29.3845V40.4449H27.0445V42.242H29.3845V42.8027H27.0445V45.6062H26.4741L26.4595 39.8842Z" fill="#9895B2"></path>
        <path id="Vector_10" d="M33.1579 39.7404C33.5671 39.733 33.9736 39.8069 34.3531 39.9576C34.7325 40.1083 35.0772 40.3327 35.3663 40.6174C35.6561 40.8925 35.8849 41.2235 36.0384 41.5897C36.1919 41.9558 36.2668 42.3492 36.2585 42.7452C36.2556 43.3402 36.074 43.9212 35.7363 44.4151C35.3987 44.9091 34.92 45.2939 34.3606 45.5212C33.8012 45.7486 33.1859 45.8083 32.592 45.693C31.9981 45.5777 31.4521 45.2924 31.0227 44.873C30.7366 44.6011 30.5099 44.2748 30.3565 43.9139C30.2031 43.5529 30.1262 43.165 30.1305 42.7739C30.1258 42.2492 30.2577 41.7319 30.5137 41.2714C30.7697 40.8109 31.1413 40.4225 31.5931 40.1429C32.0687 39.8737 32.6091 39.7347 33.1579 39.7404ZM33.1579 40.3011C32.7258 40.3018 32.3017 40.416 31.9294 40.6317C31.5522 40.8447 31.2393 41.1523 31.0227 41.5231C30.8103 41.9069 30.6997 42.337 30.7009 42.7739C30.696 43.092 30.757 43.4077 30.8802 43.7018C31.0034 43.996 31.1862 44.2624 31.4176 44.4848C31.6428 44.7135 31.9136 44.8942 32.213 45.0154C32.5125 45.1366 32.8342 45.1958 33.1579 45.1893C33.5948 45.189 34.0237 45.0749 34.4011 44.8586C34.7808 44.6554 35.095 44.3516 35.3078 43.9816C35.5184 43.6023 35.629 43.1772 35.6296 42.7452C35.6309 42.3128 35.5202 41.8873 35.3078 41.5087C35.0851 41.1414 34.7672 40.8387 34.3865 40.6317C34.0228 40.4209 33.6094 40.3069 33.1872 40.3011H33.1579Z" fill="#9895B2"></path>
        <path id="Vector_11" d="M37.4723 39.8842H38.0573V43.3346C38.0573 43.7516 38.0573 43.996 38.0573 44.0966C38.083 44.3005 38.1528 44.4966 38.2621 44.6717C38.3867 44.8358 38.5532 44.9648 38.7447 45.0455C38.9495 45.1453 39.1743 45.1993 39.4028 45.2036C39.5958 45.2035 39.7861 45.1592 39.9586 45.0742C40.1308 45.0021 40.2818 44.8884 40.3974 44.7436C40.5199 44.5904 40.6094 44.4143 40.6606 44.226C40.6944 43.9298 40.6944 43.6308 40.6606 43.3346V39.8842H41.2456V43.3346C41.2564 43.7524 41.2022 44.1694 41.0847 44.5711C40.9784 44.8999 40.7684 45.1869 40.4851 45.3905C40.1662 45.6298 39.7747 45.7564 39.3736 45.75C38.9493 45.7593 38.5318 45.6442 38.1743 45.4193C37.855 45.2109 37.6176 44.9015 37.5016 44.5423C37.4144 44.1458 37.38 43.7398 37.3992 43.3346L37.4723 39.8842Z" fill="#9895B2"></path>
        <path id="Vector_12" d="M42.7666 45.6062V39.8554H42.9129L46.7739 44.2404V39.8842H47.3004V45.635H47.1688L43.3224 41.3219V45.635L42.7666 45.6062Z" fill="#9895B2"></path>
        <path id="Vector_13" d="M48.7627 45.6062V39.8554H49.962C50.5986 39.8242 51.2362 39.8971 51.8486 40.0711C52.3964 40.2468 52.8662 40.6021 53.1795 41.0775C53.4996 41.5916 53.6621 42.1857 53.6475 42.7883C53.6496 43.29 53.5239 43.7843 53.2819 44.226C53.0534 44.631 52.7139 44.9647 52.302 45.1893C51.7686 45.4212 51.1882 45.5294 50.6055 45.5056L48.7627 45.6062ZM49.3185 45.0599H49.9912C50.551 45.087 51.112 45.0386 51.6585 44.9161C52.0799 44.7876 52.4421 44.518 52.6822 44.1541C52.9485 43.7641 53.0817 43.3008 53.0625 42.8315C53.0819 42.322 52.9387 41.8193 52.653 41.3938C52.3851 41.0071 51.9858 40.7267 51.5268 40.603C50.9383 40.4637 50.3328 40.4057 49.728 40.4305H49.3185V45.0599Z" fill="#9895B2"></path>
        <path id="Vector_14" d="M57.2014 39.8842L59.9071 45.635H59.2782L58.3715 43.7516H55.8706L54.9638 45.635H54.3057L57.0552 39.8842H57.2014ZM57.1283 41.1062L56.0753 43.1765H58.0497L57.1283 41.1062Z" fill="#9895B2"></path>
        <path id="Vector_15" d="M60.2583 40.4449V39.8842H63.3881V40.4449H62.1011V45.6062H61.5014V40.4449H60.2583Z" fill="#9895B2"></path>
        <path id="Vector_16" d="M64.1924 39.8842H64.8505V45.635H64.2655L64.1924 39.8842Z" fill="#9895B2"></path>
        <path id="Vector_17" d="M68.8874 39.7404C69.2966 39.733 69.7031 39.8069 70.0826 39.9576C70.462 40.1083 70.8067 40.3327 71.0958 40.6174C71.3856 40.8925 71.6144 41.2235 71.7679 41.5897C71.9214 41.9558 71.9963 42.3492 71.988 42.7452C71.9851 43.3402 71.8035 43.9212 71.4658 44.4151C71.1282 44.9091 70.6495 45.2939 70.0901 45.5212C69.5307 45.7486 68.9154 45.8083 68.3215 45.693C67.7276 45.5777 67.1816 45.2924 66.7522 44.873C66.4661 44.6011 66.2394 44.2748 66.086 43.9139C65.9326 43.5529 65.8557 43.165 65.86 42.7739C65.8665 42.2347 66.0233 41.7076 66.3134 41.25C66.5694 40.7895 66.9488 40.4066 67.4103 40.1429C67.8602 39.8882 68.3684 39.7497 68.8874 39.7404ZM68.8874 40.3011C68.4553 40.3018 68.0312 40.416 67.6589 40.6317C67.2817 40.8447 66.9688 41.1523 66.7522 41.5231C66.5398 41.9069 66.4292 42.337 66.4304 42.7739C66.4285 43.0916 66.4907 43.4066 66.6135 43.7005C66.7363 43.9944 66.9172 44.2614 67.1457 44.4861C67.3743 44.7107 67.6459 44.8886 67.9449 45.0093C68.2439 45.13 68.5642 45.1912 68.8874 45.1893C69.3243 45.189 69.7532 45.0749 70.1306 44.8586C70.5094 44.6591 70.8198 44.354 71.0227 43.9816C71.2446 43.6061 71.3607 43.1794 71.3591 42.7452C71.3621 42.3108 71.2459 41.8836 71.0227 41.5087C70.8099 41.1388 70.4957 40.8349 70.116 40.6317C69.7515 40.4227 69.3386 40.3088 68.9167 40.3011H68.8874Z" fill="#9895B2"></path>
        <path id="Vector_18" d="M73.187 45.6062V39.8554H73.304L77.1797 44.2404V39.8842H77.7501V45.635H77.6184L73.7866 41.3219V45.635L73.187 45.6062Z" fill="#9895B2"></path>
      </g>
    </g>
  </g>
  <defs>
    <clipPath id="clip0_1239_1088">
      <rect width="77.25" height="45" fill="white" transform="translate(0.5 0.75)"></rect>
    </clipPath>
  </defs>
</svg>
