<?xml version="1.0" encoding="UTF-8"?>
<svg xmlns="http://www.w3.org/2000/svg" width="68" height="68" viewBox="0 0 68 68" fill="none">
  <path d="M1 55.978H7.03968C8.41256 57.3793 8.68686 58.1604 10.334 58.7059C11.8738 57.6188 12.5158 56.8264 13.3539 55.1597C14.1998 53.3317 14.887 52.5879 16.3737 51.6134C17.4718 52.159 18.3184 54.0489 19.119 55.978H23.5115" stroke="#3843D0" stroke-width="1.91176" stroke-linecap="round" stroke-linejoin="round"></path>
  <path d="M63.4343 24.1723L57.3949 29.7637C57.0852 30.0504 56.624 30.102 56.2595 29.8907L39.0828 19.9345C38.6873 19.7052 38.511 19.2288 38.6622 18.7979L41.2305 11.4781C41.4281 10.9148 42.0902 10.6666 42.6102 10.9609L53.0672 16.8785L63.2581 22.6456C63.8197 22.9634 63.9086 23.7333 63.4343 24.1723Z" stroke="#3843D0" stroke-width="1.91176"></path>
  <path d="M37.8008 52.0147L52.6111 42.3384L54.529 32.4192" stroke="#3843D0" stroke-width="1.91176" stroke-linecap="round"></path>
  <path d="M37.2359 24.3344L30.6472 29.7902L29 54.3413L30.0981 54.8869L40.5303 37.9739" stroke="#3843D0" stroke-width="1.91176" stroke-linecap="round" stroke-linejoin="round"></path>
  <circle cx="44.0149" cy="31.9412" r="2.86765" stroke="#3843D0" stroke-width="1.91176"></circle>
</svg>
