<?xml version="1.0" encoding="UTF-8"?>
<svg xmlns="http://www.w3.org/2000/svg" width="68" height="68" viewBox="0 0 68 68" fill="none">
  <g clip-path="url(#clip0_7547_1222)">
    <path d="M58.6515 23.9157C59.7379 24.4735 59.7379 26.0265 58.6515 26.5844L34.1852 39.1481C33.7551 39.369 33.2449 39.369 32.8148 39.1481L8.34847 26.5844C7.26208 26.0265 7.26208 24.4735 8.34847 23.9157L32.8148 11.3519C33.2449 11.131 33.7551 11.131 34.1852 11.3519L58.6515 23.9157Z" stroke="#3843D0" stroke-width="2" stroke-miterlimit="10" stroke-linecap="round" stroke-linejoin="round"></path>
    <path d="M51.875 35V49.325C51.875 49.325 45.65 56.6 33.2 56.6C20.75 56.6 15.5 49.325 15.5 49.325V35" stroke="#3843D0" stroke-width="2" stroke-miterlimit="10" stroke-linecap="round" stroke-linejoin="round"></path>
    <path d="M60.5 32L60.5 45.5" stroke="#3843D0" stroke-width="2" stroke-miterlimit="10" stroke-linecap="round" stroke-linejoin="round"></path>
    <path d="M58.25 48.5H62.375" stroke="#3843D0" stroke-width="2" stroke-miterlimit="10" stroke-linecap="round" stroke-linejoin="round"></path>
  </g>
  <defs>
    <clipPath id="clip0_7547_1222">
      <rect width="68" height="68" fill="white"></rect>
    </clipPath>
  </defs>
</svg>
