<?xml version="1.0" encoding="UTF-8"?>
<svg xmlns="http://www.w3.org/2000/svg" width="68" height="68" viewBox="0 0 68 68" fill="none">
  <path d="M47 10C43.7579 7.52941 39.4105 6 34.5474 6C31.4526 6 28.5789 6.64706 26 7.70588" stroke="#3843D0" stroke-width="2" stroke-miterlimit="10" stroke-linecap="round" stroke-linejoin="round"></path>
  <path d="M48 47C53.3333 44.3261 57 38.913 57 32.6522C57 32.3913 57 32.1957 56.9333 32" stroke="#3843D0" stroke-width="2" stroke-miterlimit="10" stroke-linecap="round" stroke-linejoin="round"></path>
  <path d="M11 33C11 33.1333 11 33.2667 11 33.4667C11 39.8 14.6541 45.2667 20 48" stroke="#3843D0" stroke-width="2" stroke-miterlimit="10" stroke-linecap="round" stroke-linejoin="round"></path>
  <path d="M3 17.5447C3 11.7362 7.75641 7 13.5 7C16.0128 7 18.3462 7.89362 20.141 9.41277C20.7692 9.94894 21.3077 10.4851 21.8462 11.2C23.1923 12.9872 24 15.1319 24 17.5447C24 23.3532 19.2436 28 13.5 28C12.7821 28 12.1538 27.9106 11.5256 27.8213C10.7179 27.6426 9.91026 27.3745 9.19231 27.1064C5.60256 25.4085 3 21.7447 3 17.5447Z" stroke="#3843D0" stroke-width="2" stroke-miterlimit="10" stroke-linecap="round" stroke-linejoin="round"></path>
  <path d="M42 61H24V52.7251V50.1659V43H42V50.2512V52.8104V61Z" stroke="#3843D0" stroke-width="2" stroke-miterlimit="10" stroke-linecap="round" stroke-linejoin="round"></path>
  <path d="M46 26L55 9L64 26H46Z" stroke="#3843D0" stroke-width="2" stroke-miterlimit="10" stroke-linecap="round" stroke-linejoin="round"></path>
</svg>
