<?xml version="1.0" encoding="UTF-8"?>
<svg xmlns="http://www.w3.org/2000/svg" width="68" height="68" viewBox="0 0 68 68" fill="none">
  <path d="M33.9932 15.8517C37.514 15.8517 40.3682 12.9975 40.3682 9.47669C40.3682 5.95587 37.514 3.10168 33.9932 3.10168C30.4724 3.10168 27.6182 5.95587 27.6182 9.47669C27.6182 12.9975 30.4724 15.8517 33.9932 15.8517Z" stroke="#3843D0" stroke-width="2" stroke-miterlimit="10" stroke-linecap="round" stroke-linejoin="round"></path>
  <path d="M22.5148 30.2244C22.5148 30.2244 22.5854 20.7996 33.9932 20.7996C45.4002 20.7996 45.4708 30.2244 45.4708 30.2244" stroke="#3843D0" stroke-width="2" stroke-miterlimit="10" stroke-linecap="round" stroke-linejoin="round"></path>
  <path d="M27.625 43.0363L32.0331 46.8392L40.375 38.7506" stroke="#3843D0" stroke-width="2" stroke-miterlimit="10" stroke-linecap="round" stroke-linejoin="round"></path>
  <path d="M55.125 50.5258C58.6459 50.5258 61.5 47.6716 61.5 44.1508C61.5 40.6299 58.6459 37.7758 55.125 37.7758C51.6042 37.7758 48.75 40.6299 48.75 44.1508C48.75 47.6716 51.6042 50.5258 55.125 50.5258Z" stroke="#3843D0" stroke-width="2" stroke-miterlimit="10" stroke-linecap="round" stroke-linejoin="round"></path>
  <path d="M43.6475 64.8992C43.6475 64.8992 43.718 55.4744 55.125 55.4744C66.5329 55.4744 66.6034 64.8992 66.6034 64.8992" stroke="#3843D0" stroke-width="2" stroke-miterlimit="10" stroke-linecap="round" stroke-linejoin="round"></path>
  <path d="M12.875 50.5258C16.3958 50.5258 19.25 47.6716 19.25 44.1508C19.25 40.6299 16.3958 37.7758 12.875 37.7758C9.35414 37.7758 6.49995 40.6299 6.49995 44.1508C6.49995 47.6716 9.35414 50.5258 12.875 50.5258Z" stroke="#3843D0" stroke-width="2" stroke-miterlimit="10" stroke-linecap="round" stroke-linejoin="round"></path>
  <path d="M1.3974 64.8992C1.3974 64.8992 1.46795 55.4744 12.875 55.4744C24.282 55.4744 24.3525 64.8992 24.3525 64.8992" stroke="#3843D0" stroke-width="2" stroke-miterlimit="10" stroke-linecap="round" stroke-linejoin="round"></path>
</svg>
