<?xml version="1.0" encoding="UTF-8"?>
<svg xmlns="http://www.w3.org/2000/svg" width="68" height="68" viewBox="0 0 68 68" fill="none">
  <path d="M43.8242 10.8627H42.1796C41.9848 10.1083 41.6885 9.39257 41.2962 8.72817L42.4607 7.56361C42.6819 7.34239 42.8039 7.04759 42.8039 6.73349C42.8039 6.41936 42.6819 6.12456 42.4607 5.90333L41.0967 4.53932C40.6391 4.08147 39.894 4.08122 39.4365 4.53932L38.2719 5.70386C37.6075 5.31128 36.8918 5.01526 36.1374 4.82043V3.17579C36.1374 2.52752 35.6099 2 34.9616 2H33.0384C32.3901 2 31.8626 2.52752 31.8626 3.17579V4.82043C31.1082 5.01526 30.3925 5.31153 29.7281 5.70386L28.5635 4.53932C28.1057 4.08122 27.3606 4.08147 26.9033 4.53932L25.5393 5.90308C25.3181 6.12431 25.1961 6.41911 25.1961 6.73324C25.1961 7.04733 25.3181 7.34213 25.5393 7.56336L26.7038 8.72791C26.3112 9.39231 26.0152 10.1081 25.8204 10.8624H24.1758C23.5275 10.8624 23 11.3899 23 12.0382V13.9615C23 14.6098 23.5275 15.1373 24.1758 15.1373H25.8204C26.0152 15.8917 26.3115 16.6074 26.7038 17.2718L25.5393 18.4364C25.3181 18.6576 25.1961 18.9524 25.1961 19.2665C25.1961 19.5806 25.3181 19.8754 25.5393 20.0967L26.9033 21.4607C27.1321 21.6897 27.4328 21.8041 27.7334 21.8041C28.0341 21.8041 28.3348 21.6897 28.5635 21.4607L29.7281 20.2961C30.3925 20.6887 31.1082 20.9847 31.8626 21.1796V22.8242C31.8626 23.4725 32.3901 24 33.0384 24H34.9616C35.6099 24 36.1374 23.4725 36.1374 22.8242V21.1796C36.8918 20.9847 37.6075 20.6885 38.2719 20.2961L39.4365 21.4607C39.6653 21.6897 39.9659 21.8041 40.2666 21.8041C40.5672 21.8041 40.8679 21.6897 41.0967 21.4607L42.4607 20.0969C42.6819 19.8757 42.8039 19.5809 42.8039 19.2668C42.8039 18.9527 42.6819 18.6579 42.4607 18.4366L41.2962 17.2721C41.6888 16.6077 41.9848 15.8919 42.1796 15.1376H43.8242C44.4725 15.1376 45 14.6101 45 13.9618V12.0385C45 11.3902 44.4725 10.8627 43.8242 10.8627Z" stroke="#3843D0" stroke-width="2"></path>
  <path d="M34 9C31.7944 9 30 10.7943 30 13C30 15.2057 31.7944 17 34 17C36.2056 17 38 15.2057 38 13C38 10.7943 36.2056 9 34 9Z" stroke="#3843D0" stroke-width="2"></path>
  <path d="M18 24H5C4.44772 24 4 24.4477 4 25V25.2596C4 25.6089 4.18229 25.9329 4.48086 26.1143L4.86005 26.3446C5.23941 26.575 5.41994 27.0294 5.31177 27.4599C3.97649 32.7741 4.12295 35.9829 5.36012 41.1882C5.44485 41.5447 5.33137 41.9203 5.06049 42.1671L4.82651 42.3803C4.61853 42.5698 4.5 42.8381 4.5 43.1195V43.5C4.5 44.0523 4.94771 44.5 5.5 44.5H18C18.5523 44.5 19 44.0523 19 43.5V43.1195C19 42.8381 18.8815 42.5698 18.6735 42.3803L18.4419 42.1693C18.1697 41.9213 18.0567 41.5437 18.1424 41.1857C19.4358 35.7809 19.2965 32.5613 18.1288 27.3036C18.0505 26.9512 18.165 26.583 18.4318 26.3399L18.6735 26.1197C18.8815 25.9302 19 25.6619 19 25.3805V25C19 24.4477 18.5523 24 18 24Z" stroke="#3843D0" stroke-width="2"></path>
  <path d="M10 32H14" stroke="#3843D0" stroke-width="2" stroke-linecap="round"></path>
  <path d="M10 37H13" stroke="#3843D0" stroke-width="2" stroke-linecap="round"></path>
  <mask id="path-6-inside-1_2500_21" fill="white">
    <path d="M46 31C46 29.8954 46.8954 29 48 29H64C65.1046 29 66 29.8954 66 31V43C66 43.5523 65.5523 44 65 44H47C46.4477 44 46 43.5523 46 43V31Z"></path>
  </mask>
  <path d="M46 31C46 29.8954 46.8954 29 48 29H64C65.1046 29 66 29.8954 66 31V43C66 43.5523 65.5523 44 65 44H47C46.4477 44 46 43.5523 46 43V31Z" stroke="#3843D0" stroke-width="4" mask="url(#path-6-inside-1_2500_21)"></path>
  <path d="M58 33V37C58 37.5523 58.4477 38 59 38H61C61.5523 38 62 37.5523 62 37V33" stroke="#3843D0" stroke-width="2" stroke-linecap="round"></path>
  <path d="M51.2071 22.8421H60.7929C61.1537 22.8421 61.4744 23.072 61.5904 23.4136L62.825 27.0526H49.175L50.4096 23.4136C50.5256 23.072 50.8463 22.8421 51.2071 22.8421Z" stroke="#3843D0" stroke-width="1.68421"></path>
  <path d="M35 51C37.7273 51 40 48.7273 40 46C40 43.2727 37.7273 41 35 41C32.2727 41 30 43.2727 30 46C30 48.803 32.197 51 35 51Z" stroke="#3843D0" stroke-width="2" stroke-miterlimit="10" stroke-linecap="round" stroke-linejoin="round"></path>
  <path d="M29.4727 65C28.0909 65 27 63.8542 27 62.4028C27 57.7431 30.6364 54 35 54C39.3636 54 42.9273 57.7431 43 62.4028C43 63.8542 41.9091 65 40.5273 65" stroke="#3843D0" stroke-width="2" stroke-miterlimit="10" stroke-linecap="round" stroke-linejoin="round"></path>
  <path d="M59.8165 46.3393C59.2997 49.6125 57.7135 52.6225 55.3057 54.8992C52.8979 57.1759 49.8039 58.5912 46.507 58.9241" stroke="#3843D0" stroke-width="2"></path>
  <path d="M59.8165 46.3393C59.2997 49.6125 57.7135 52.6225 55.3057 54.8992C52.8979 57.1759 49.8039 58.5912 46.507 58.9241" stroke="#3843D0" stroke-width="2" stroke-linecap="round"></path>
  <path d="M47.6923 6.24359C50.9522 6.83837 53.9235 8.4959 56.1421 10.9574C58.3607 13.4188 59.7017 16.5457 59.9558 19.8497" stroke="#3843D0" stroke-width="2" stroke-linecap="round"></path>
  <path d="M9.60209 48.2072C10.4871 51.2357 12.3045 53.9081 14.7958 55.8441C17.2872 57.7802 20.3256 58.8813 23.4789 58.9909" stroke="#3843D0" stroke-width="2" stroke-linecap="round"></path>
  <path d="M21.3077 6.24359C18.0478 6.83837 15.0765 8.4959 12.8579 10.9574C10.6393 13.4188 9.29829 16.5457 9.04417 19.8497" stroke="#3843D0" stroke-width="2" stroke-linecap="round"></path>
</svg>
