<?xml version="1.0" encoding="UTF-8"?>
<svg xmlns="http://www.w3.org/2000/svg" width="68" height="68" viewBox="0 0 68 68" fill="none">
  <g clip-path="url(#clip0_2500_5)">
    <path d="M62.6 24.2C65.0301 24.2 67 22.2301 67 19.8C67 17.37 65.0301 15.4 62.6 15.4C60.17 15.4 58.2 17.37 58.2 19.8C58.2 22.2301 60.17 24.2 62.6 24.2Z" stroke="#3843D0" stroke-width="2" stroke-miterlimit="10" stroke-linecap="round" stroke-linejoin="round"></path>
    <path d="M62.6 28.8V24.9" stroke="#3843D0" stroke-width="2" stroke-miterlimit="10" stroke-linecap="round" stroke-linejoin="round"></path>
    <path d="M28.7 1.30005V8.70005H27.4V13.7H40.2V8.70005H38.7V1.30005" stroke="#3843D0" stroke-width="2" stroke-miterlimit="10" stroke-linecap="round" stroke-linejoin="round"></path>
    <path d="M38.7 66.7V57.6H40.2V52.6H27.4V57.6H28.7V66.7" stroke="#3843D0" stroke-width="2" stroke-miterlimit="10" stroke-linecap="round" stroke-linejoin="round"></path>
    <path d="M45.1 29H42.6C41.5808 29 40.6688 28.6136 39.9836 27.9901C39.1897 27.2677 38.7 26.2271 38.7 25.1V23H40.1V18H27.3V22.9H28.7V25C28.7 26.2177 28.1486 27.2822 27.3 27.9901C26.6155 28.5611 25.7377 28.9 24.8 28.9H22.9V27.5H18V40.3H22.9V39H24.7C25.8692 39 26.8972 39.5084 27.6038 40.3C28.2268 40.9979 28.6 41.916 28.6 42.9V43.3H27.2V48.2H40V43.3H38.6V42.9C38.6 41.8889 38.9802 40.9834 39.5951 40.3C40.318 39.4965 41.3652 39 42.5 39H45V40.4H49.9V27.6H45V29H45.1Z" stroke="#3843D0" stroke-width="2" stroke-miterlimit="10" stroke-linecap="round" stroke-linejoin="round"></path>
    <path d="M1 39H8.9V40.4H13.8V27.6H8.9V29H1" stroke="#3843D0" stroke-width="2" stroke-miterlimit="10" stroke-linecap="round" stroke-linejoin="round"></path>
    <path d="M59.3 29V27.6H54.4V40.4H59.3V39H66.8" stroke="#3843D0" stroke-width="2" stroke-miterlimit="10" stroke-linecap="round" stroke-linejoin="round"></path>
  </g>
  <defs>
    <clipPath id="clip0_2500_5">
      <rect width="68" height="68" fill="white"></rect>
    </clipPath>
  </defs>
</svg>
